<?xml version="1.0" encoding="utf-8"?>
<!-- Generator: Adobe Illustrator 18.0.0, SVG Export Plug-In . SVG Version: 6.00 Build 0)  -->
<!DOCTYPE svg PUBLIC "-//W3C//DTD SVG 1.1//EN" "http://www.w3.org/Graphics/SVG/1.1/DTD/svg11.dtd">
<svg version="1.1" id="Layer_1" xmlns="http://www.w3.org/2000/svg" xmlns:xlink="http://www.w3.org/1999/xlink" x="0px" y="0px"
	 viewBox="0 0 148 92" enable-background="new 0 0 148 92" xml:space="preserve">
<g>
	<g>
		<path fill="#BE1E23" d="M57.7,68.2c3.3,0,6.1-0.8,8.2-2.5c2.1-1.7,3.2-3.5,3.2-5.3c0-0.7-0.3-1.3-0.8-1.9
			c-0.5-0.5-1.1-0.8-1.9-0.8c-0.7,0-1.4,0.3-2,0.8C64,58.9,63.5,60,63,61.6c-0.8,2.6-2.8,3.9-5.8,3.9c-2.9,0-5.6-1.4-8.1-4.1
			c-3.4-3.7-6.6-10.1-9.8-19.1c-1.3-3.9-2.3-6.6-3-8.2c-0.4-1-1.3-2.8-2.8-5.6c5.8-0.9,10.3-3,13.6-6.2c3.3-3.2,4.9-6.6,4.9-10.4
			c0-4-1.8-6.9-5.4-9C43.2,1,38.6,0,33,0c-6,0-11.6,1.3-17,3.9c-5.4,2.6-9.4,5.9-12,10c-2.7,4-4,8.3-4,13c0,3.6,0.8,6.7,2.5,9.1
			c1.3,1.9,2.8,2.8,4.5,2.8c0.7,0,1.3-0.2,1.8-0.7c0.5-0.5,0.7-1,0.7-1.7c0-0.5-0.1-1-0.4-1.5c-0.3-0.5-1-1.2-2.2-2.2
			c-2.4-2-3.6-4.4-3.6-7.2c0-3.7,1.2-7.3,3.5-10.7c2.3-3.4,5.8-6.2,10.5-8.5C22,4.2,26.8,3,31.7,3c3.8,0,6.9,0.9,9.1,2.7
			c2.2,1.8,3.3,4.1,3.3,6.9c0,3.6-1.4,6.8-4.2,9.4c-2.8,2.6-6.1,4-10,4c-1,0-2.3-0.2-3.8-0.4l3.5-13.3c0.6-2.2,1.1-3.9,1.5-5.1
			c-4.4,1.1-8.1,1.6-11.3,1.7L19.2,11c1.2,0,1.9,0.1,2.3,0.4c0.4,0.3,0.6,0.7,0.6,1.2c0,0.6-0.4,2.5-1.2,5.7l-6.5,25.3
			c-0.8,3.3-2,5.5-3.6,6.8c-1,0.8-3.3,1.6-6.7,2.5l-0.7,2.5c3.3-0.7,6.2-1,8.6-1c1.4,0,3.1,0.1,5.2,0.3c2.4,0.2,4.2,0.3,5.4,0.3
			c1.2,0,2.8-0.2,4.9-0.6l0.5-2.2c-2,0.4-3.7,0.7-5.1,0.7c-0.9,0-2.1-0.1-3.6-0.3l6.3-24c0.5-0.1,0.9-0.1,1.2-0.1l1.2,0.1
			c0.3,0.7,1,2.9,2.1,6.6c1.9,6,3.3,10.2,4.3,12.4c1.9,4.5,4.2,8.4,6.8,11.6c2.6,3.2,5.3,5.5,8,6.9C51.8,67.5,54.7,68.2,57.7,68.2z
			 M86.6,29.7c0-4.2-1-7.5-3-9.8c-2-2.4-4.6-3.5-7.6-3.5c-7,0-12.9,3.3-17.6,10c-3.7,5.4-5.6,11.2-5.6,17.6c0,3.7,1,6.5,3.1,8.6
			c2,2.1,4.7,3.2,8.1,3.2c5.4,0,10.6-2.7,15.4-8C84.2,42.4,86.6,36.4,86.6,29.7z M74.5,47.5c-2.2,3.1-4.5,4.7-7.2,4.7
			c-1.9,0-3.4-0.8-4.5-2.5c-1.5-2.3-2.3-5.3-2.3-9.3c0-6.5,1.2-11.5,3.7-15.2c2.5-3.7,5-5.5,7.7-5.5c1.9,0,3.5,1,4.7,2.9
			c1.3,1.9,1.9,5.2,1.9,9.7C78.6,38.3,77.3,43.4,74.5,47.5z M107.1,52c2.8-2.4,4.2-5.2,4.2-8.4c0-3.2-1.7-6.6-5.2-10.1
			c-2.5-2.6-4.1-4.5-4.7-5.6c-0.6-1.2-0.9-2.4-0.9-3.6c0-1.4,0.5-2.6,1.5-3.5c1-1,2.1-1.4,3.4-1.4c1.5,0,3,1,4.5,2.9
			c0.8,1,1.4,1.7,1.9,1.9c0.4,0.3,1,0.4,1.5,0.4c0.9,0,1.7-0.3,2.3-0.9c0.6-0.6,1-1.3,1-2.1c0-1.4-0.8-2.6-2.3-3.6
			c-1.5-1-3.7-1.6-6.4-1.6c-3.8,0-6.9,1.1-9.4,3.3c-2.5,2.2-3.7,4.8-3.7,7.7c0,3.2,1.6,6.6,4.9,10.1c2.3,2.5,3.8,4.3,4.5,5.4
			c0.7,1.1,1,2.2,1,3.3c0,1.1-0.4,2.2-1.1,3.4c-0.7,1.1-1.7,2-3,2.5c-1.3,0.6-2.8,0.8-4.4,0.8c-1.5,0-2.6-0.3-3.4-1
			c-0.9-0.7-1.3-1.5-1.3-2.5c0-0.3,0-0.6,0-1c0-0.5,0.1-0.9,0.1-1.2c0-0.8-0.3-1.4-0.9-2c-0.6-0.6-1.4-0.8-2.2-0.8
			c-1,0-1.8,0.3-2.5,1c-0.7,0.7-1,1.6-1,2.6c0,2.1,0.9,3.9,2.7,5.4c1.8,1.5,4.6,2.2,8.3,2.2C100.6,55.6,104.2,54.4,107.1,52z
			 M136.1,16.2c-6.3,0-11.8,3.6-16.3,10.9c-4.1,6.4-6.1,12.8-6.1,19.3c0,3.2,0.6,5.5,1.8,7c1.2,1.5,2.9,2.2,5.1,2.2
			c5.5,0,12-3.5,19.7-10.5l-1.5-2c-4,2.9-7,4.8-9,5.7c-1.5,0.7-2.9,1-4.2,1c-1.3,0-2.4-0.4-3.1-1.3c-0.7-0.8-1.1-2.3-1.1-4.5
			c0-1.5,0.1-3,0.4-4.7c5.9-2.6,9.8-4.4,11.6-5.4c3.6-2.1,6.1-4,7.5-5.9c1.4-1.9,2.1-3.8,2.1-5.8c0-1.9-0.6-3.3-1.8-4.4
			C140,16.8,138.3,16.2,136.1,16.2z M133.5,29.5c-2.5,2.5-6.3,4.8-11.3,7c0.6-3.4,1.6-6.8,3-10.1c1-2.3,2.2-4,3.7-5.1
			c1.1-0.8,2.2-1.3,3.4-1.3c1.1,0,2,0.4,2.7,1.2c0.7,0.8,1.1,1.8,1.1,3.1C136.1,26,135.3,27.7,133.5,29.5z M11.4,78.4
			c-0.5-0.3-1.1-0.5-1.8-0.5c-0.5,0-0.9,0.1-1.3,0.3C8.1,78.3,7.4,79,6.4,80v-0.9c0-2.6,0.1-4.6,0.3-5.9L6.4,73
			c-0.9,0.5-1.9,0.9-3.2,1.3v0.6c0.5-0.1,0.9-0.1,1.1-0.1c0.2,0,0.3,0.1,0.4,0.2c0.1,0.1,0.1,0.5,0.1,0.9v0.5l0,2
			c0,3.7,0,6.7-0.1,8.9c1,0.5,1.8,0.7,2.7,0.7c1.6,0,2.9-0.6,4-1.7c1.1-1.1,1.6-2.6,1.6-4.2c0-0.9-0.1-1.6-0.4-2.3
			C12.3,79.2,11.9,78.7,11.4,78.4z M10.5,86c-0.6,0.7-1.3,1-2.2,1c-0.6,0-1.3-0.2-1.9-0.6v-3.1c0-0.9,0-1.4,0.1-1.6
			c0.1-0.4,0.2-0.7,0.4-1.1c0.2-0.4,0.6-0.7,0.9-0.9c0.4-0.2,0.7-0.3,1.1-0.3c0.7,0,1.2,0.3,1.7,0.9c0.5,0.6,0.7,1.5,0.7,2.6
			C11.4,84.3,11.1,85.3,10.5,86z M20.6,78.1v0.6c0.1,0,0.2,0.1,0.3,0.1c0.2,0.1,0.4,0.1,0.5,0.2c0.1,0.1,0.1,0.2,0.1,0.3
			c0,0.3-0.3,1.2-0.9,2.8l-1,3c-0.7-1.4-1.4-3-2.1-4.8c-0.2-0.5-0.3-0.9-0.3-1c0-0.1,0-0.2,0.1-0.3c0.1-0.1,0.5-0.2,1.1-0.3v-0.6
			c-1.1,0.1-1.9,0.1-2.2,0.1c-0.4,0-1.2,0-2.2-0.1v0.6c0.5,0.1,0.8,0.3,1,0.4c0.1,0.1,0.2,0.3,0.4,0.5c0.4,0.8,1,1.9,1.6,3.4
			l1.9,4.5c-0.3,1.2-0.8,2.1-1.2,2.6c-0.3,0.3-0.7,0.5-1.2,0.5c-0.5,0-1-0.2-1.5-0.7l-0.4,0.3c0.2,0.4,0.3,0.6,0.4,0.8
			c0.1,0.2,0.2,0.5,0.2,0.9C15.5,92,15.8,92,16,92c0.4,0,0.9-0.2,1.4-0.5c0.5-0.3,0.9-0.9,1.3-1.6c0.3-0.5,0.7-1.6,1.3-3.2l1.9-5.2
			c0.5-1.3,0.8-2.1,1-2.3c0.2-0.2,0.5-0.3,1-0.5v-0.6c-0.6,0.1-1,0.1-1.5,0.1C22.1,78.3,21.5,78.2,20.6,78.1z M41.1,68.7l0,8.9H41
			c-0.2-0.3-0.3-0.6-0.5-0.8c-0.2-0.3-0.4-0.5-0.7-0.7c-0.3-0.2-0.6-0.3-0.9-0.4c-0.4-0.1-0.8-0.2-1.2-0.2c-0.5,0-1,0.1-1.6,0.3
			c-0.5,0.2-1,0.4-1.5,0.8c-0.5,0.4-0.9,0.9-1.2,1.5c-0.4,0.6-0.6,1.3-0.8,2.2c-0.2,0.7-0.2,1.4-0.3,2.2c0,0.7,0,1.5,0.1,2.2
			c0.1,0.7,0.3,1.4,0.6,2c0.3,0.6,0.7,1.2,1.1,1.7c0.5,0.5,1,0.8,1.7,1.1c0.7,0.3,1.4,0.4,2.3,0.4c0.7,0,1.3-0.1,1.8-0.3
			c0.6-0.2,1.1-0.5,1.5-0.8c0.4-0.4,0.8-0.8,1.1-1.3c0.3-0.5,0.5-1,0.6-1.6c0.1-0.2,0.1-0.5,0.1-0.7c0-0.2,0-0.5,0-0.8l0-15.5H41.1z
			 M41.1,84.1c0,0.2,0,0.5,0,0.7c0,0.2,0,0.5-0.1,0.7c-0.1,0.7-0.5,1.3-0.9,1.7c-0.5,0.4-1.1,0.6-1.8,0.6c-0.6,0-1.1-0.1-1.5-0.3
			c-0.4-0.2-0.8-0.5-1.1-0.9c-0.3-0.4-0.5-0.8-0.7-1.3c-0.2-0.5-0.3-1-0.4-1.6c-0.1-0.6-0.1-1.1-0.1-1.7c0-0.5,0.1-1.1,0.2-1.6
			c0.1-0.4,0.2-0.7,0.4-1.1c0.2-0.4,0.4-0.7,0.6-1c0.3-0.3,0.6-0.5,0.9-0.7c0.4-0.2,0.8-0.3,1.2-0.3c0.4,0,0.8,0.1,1.2,0.2
			c0.4,0.2,0.7,0.4,1,0.8c0.3,0.3,0.6,0.8,0.7,1.3c0.2,0.5,0.3,1.1,0.3,1.9V84.1z M52.8,75.4c-0.5,0-0.9,0.1-1.3,0.2
			c-0.4,0.1-0.7,0.3-1,0.5c-0.3,0.2-0.6,0.4-0.8,0.7c-0.2,0.3-0.4,0.6-0.6,0.9h0v-1.8h-2.2v13.5h2.2v-7.5c0-0.6,0.1-1.1,0.2-1.7
			c0.2-0.5,0.4-1,0.7-1.4c0.3-0.4,0.7-0.7,1.2-0.9c0.5-0.2,1.1-0.3,1.7-0.3c0.3,0,0.6,0,0.9,0v-2.1c-0.1,0-0.3-0.1-0.5-0.1
			C53.2,75.5,53,75.4,52.8,75.4z M55.6,89.3h2.7v-2.8h-2.7L55.6,89.3z M71.4,74.3c0,0.8,0,1.5,0,2.1c-0.1-0.2-0.3-0.4-0.5-0.6
			c-0.2-0.2-0.4-0.4-0.7-0.5c-0.3-0.1-0.6-0.3-0.9-0.4c-0.3-0.1-0.7-0.1-1.1-0.1c-0.6,0-1.2,0.1-1.7,0.3c-0.6,0.2-1.1,0.5-1.6,1
			c-0.5,0.4-0.9,0.9-1.3,1.6c-0.4,0.6-0.6,1.4-0.8,2.2c-0.1,0.7-0.2,1.5-0.3,2.2c0,0.8,0,1.5,0.2,2.2c0.1,0.7,0.4,1.4,0.7,2
			c0.3,0.7,0.7,1.2,1.2,1.7c0.5,0.5,1.1,0.9,1.8,1.2c0.7,0.3,1.5,0.4,2.5,0.4c0.7,0,1.4-0.1,2.1-0.3c0.6-0.2,1.2-0.6,1.7-1
			c0.5-0.4,0.9-0.9,1.2-1.4c0.3-0.6,0.6-1.1,0.7-1.8c0.1-0.3,0.1-0.5,0.1-0.8c0-0.3,0.1-0.6,0.1-1.1V68.2h-3.3V74.3z M71.3,83.8
			c0,0.3,0,0.5,0,0.7c0,0.2,0,0.3-0.1,0.4c-0.1,0.6-0.4,1.1-0.7,1.4c-0.4,0.4-0.8,0.5-1.4,0.5c-0.5,0-0.9-0.1-1.2-0.3
			c-0.4-0.2-0.7-0.5-0.9-0.8c-0.3-0.4-0.5-0.8-0.6-1.2c-0.2-0.5-0.3-0.9-0.3-1.4c-0.1-0.5-0.1-1-0.1-1.5c0-0.5,0.1-1,0.2-1.5
			c0.1-0.3,0.2-0.6,0.3-0.9c0.1-0.3,0.3-0.5,0.5-0.8c0.2-0.2,0.4-0.4,0.7-0.5c0.3-0.1,0.6-0.2,0.9-0.2c0.3,0,0.6,0.1,1,0.2
			c0.3,0.2,0.6,0.4,0.9,0.7c0.3,0.3,0.5,0.7,0.6,1.1c0.2,0.5,0.2,1,0.2,1.7L71.3,83.8z M85.6,74.9c-0.9,0-1.6,0.2-2.2,0.6
			c-0.6,0.4-1.1,0.9-1.5,1.6v-1.8h-3.2v14.1H82v-7.1c0-0.5,0-0.9,0-1.2c0-0.3,0.1-0.5,0.2-0.7c0.1-0.4,0.3-0.8,0.5-1.1
			c0.2-0.3,0.5-0.5,0.8-0.7c0.3-0.2,0.6-0.3,1-0.4c0.3-0.1,0.7-0.1,1-0.1c0.4,0,0.8,0.1,1.2,0.1l0-3.2
			C86.3,74.9,85.9,74.9,85.6,74.9z M96.8,83.4c1-0.2,1.9-0.6,2.5-1c0.6-0.4,1.1-1,1.3-1.6c0.2-0.6,0.3-1.3,0.1-2.1
			c-0.1-0.6-0.3-1.1-0.7-1.6c-0.3-0.5-0.7-0.9-1.2-1.2c-0.5-0.3-1-0.6-1.7-0.8c-0.6-0.2-1.3-0.3-2-0.3c-0.8,0-1.6,0.1-2.3,0.4
			c-0.6,0.2-1.2,0.6-1.7,1c-0.5,0.4-0.9,0.9-1.2,1.5c-0.3,0.6-0.5,1.2-0.7,1.9c-0.2,0.7-0.2,1.4-0.2,2.1c0,0.7,0.1,1.5,0.2,2.2
			c0.2,0.8,0.5,1.6,0.8,2.3c0.4,0.7,0.9,1.3,1.5,1.8c0.6,0.5,1.3,0.9,2.1,1.2c0.8,0.3,1.7,0.4,2.8,0.4c0.9,0,1.6-0.1,2.4-0.2
			c0.7-0.1,1.4-0.4,1.9-0.6l0-3c-0.5,0.3-1.2,0.5-2,0.7c-0.8,0.2-1.5,0.3-2.3,0.3c-0.5,0-1-0.1-1.4-0.2c-0.4-0.1-0.8-0.3-1.1-0.5
			c-0.3-0.2-0.6-0.5-0.8-0.9c-0.2-0.4-0.4-0.8-0.5-1.4l0-0.1c0.2,0,0.5,0,0.6,0C94.6,83.8,95.8,83.7,96.8,83.4z M92.5,81.1
			c0-0.6,0.2-1.1,0.3-1.5c0.2-0.4,0.4-0.8,0.7-1.1c0.3-0.3,0.6-0.5,1-0.7c0.4-0.2,0.7-0.2,1.1-0.2c0.5,0,0.9,0.1,1.2,0.3
			c0.3,0.3,0.5,0.5,0.5,0.8c0.1,0.3,0,0.6-0.1,0.9c-0.1,0.3-0.4,0.5-0.7,0.8c-0.4,0.2-0.9,0.4-1.5,0.5C94.4,81,93.5,81.1,92.5,81.1z
			 M116.4,86.5c-0.2-0.1-0.3-0.3-0.3-0.6c0-0.1,0-0.2-0.1-0.4c0-0.1,0-0.3,0-0.5v-9.8h-3.1v1.4h-0.1c-0.6-0.6-1.2-1-1.8-1.3
			c-0.7-0.3-1.3-0.4-2-0.4c-0.7,0-1.3,0.1-1.9,0.4c-0.6,0.3-1,0.6-1.4,1.1c-0.4,0.5-0.7,1-0.9,1.7c-0.3,0.6-0.4,1.3-0.5,2.1
			c-0.1,0.7-0.1,1.5-0.1,2.3c0,0.8,0.1,1.6,0.3,2.4c0.1,0.7,0.4,1.4,0.7,2c0.3,0.6,0.7,1.1,1.1,1.5c0.4,0.4,0.9,0.8,1.5,1
			c0.6,0.2,1.1,0.3,1.8,0.3c0.7,0,1.4-0.2,2.1-0.5c0.7-0.4,1.3-0.9,1.8-1.8h0c0.3,0.7,0.6,1.2,1.1,1.6c0.5,0.4,1.1,0.6,1.9,0.6
			c0.5,0,1.1-0.1,1.7-0.2l0-2.8c-0.4,0.1-0.7,0.1-1,0.1C116.8,86.7,116.6,86.6,116.4,86.5z M112.7,81.9c0,0.6,0,1.2-0.1,1.7
			c-0.1,0.5-0.2,0.9-0.4,1.3c-0.3,0.6-0.6,1-1,1.4c-0.4,0.3-0.9,0.5-1.3,0.5c-0.5,0-0.9-0.2-1.2-0.6c-0.3-0.4-0.6-1-0.8-1.8
			c-0.1-0.4-0.2-0.9-0.2-1.4c0-0.5,0-1,0-1.5c0-0.5,0.1-1,0.2-1.5c0.1-0.5,0.3-0.9,0.5-1.3c0.2-0.4,0.5-0.6,0.8-0.9
			c0.3-0.2,0.7-0.3,1.2-0.3c0.3,0,0.5,0,0.7,0.1c0.2,0.1,0.5,0.2,0.7,0.3c0.2,0.1,0.4,0.2,0.5,0.4c0.2,0.1,0.3,0.3,0.4,0.4V81.9z
			 M141.1,78.5c-0.1-0.6-0.3-1.1-0.6-1.5c-0.3-0.4-0.6-0.8-1-1.1c-0.4-0.3-0.8-0.5-1.3-0.7c-0.5-0.2-1-0.2-1.6-0.2
			c-0.9,0-1.7,0.2-2.4,0.6c-0.7,0.4-1.3,1-1.7,1.8h-0.1c-0.4-0.8-0.9-1.4-1.6-1.8c-0.7-0.4-1.5-0.6-2.3-0.6c-0.4,0-0.8,0-1.2,0.2
			c-0.4,0.1-0.7,0.3-1,0.5c-0.3,0.2-0.6,0.4-0.9,0.7c-0.3,0.2-0.5,0.5-0.6,0.8h-0.1v-1.8h-3.2v14.1h3.4v-7.5c0-0.6,0-1.1,0.1-1.5
			c0.1-0.4,0.2-0.8,0.4-1.1c0.3-0.5,0.6-0.9,1-1.2c0.4-0.3,0.9-0.4,1.4-0.4c0.3,0,0.5,0,0.7,0.1c0.2,0.1,0.4,0.2,0.5,0.3
			c0.1,0.1,0.3,0.3,0.3,0.5c0.1,0.2,0.2,0.4,0.2,0.6c0,0.2,0.1,0.4,0.1,0.7c0,0.3,0.1,0.7,0.1,1.1v8.3h3.4v-7.4c0-0.5,0-1,0.1-1.3
			c0.1-0.4,0.2-0.7,0.3-1c0.2-0.6,0.6-1,1-1.4c0.4-0.3,0.9-0.5,1.5-0.5c0.3,0,0.5,0,0.7,0.1c0.2,0.1,0.4,0.2,0.5,0.3
			c0.1,0.1,0.3,0.3,0.4,0.5c0.1,0.2,0.2,0.4,0.2,0.6c0.1,0.2,0.1,0.4,0.1,0.7c0,0.3,0.1,0.7,0.1,1.1v8.3h3.4V81c0-0.4,0-0.9-0.1-1.3
			C141.2,79.2,141.1,78.8,141.1,78.5z M146,77.8c0.1,0,0.2-0.1,0.3-0.1c0.1-0.1,0.2-0.1,0.3-0.2c0.1-0.1,0.1-0.2,0.2-0.2
			c0-0.1,0.1-0.2,0.1-0.3c0-0.2-0.1-0.4-0.2-0.5c-0.1-0.1-0.3-0.2-0.5-0.3c-0.1,0-0.2,0-0.3,0h-1.1v3.1h0.4v-1.3h0.4l0.9,1.3h0.4
			L146,77.8L146,77.8z M145.5,77.5h-0.3v-1.1h0.4c0.1,0,0.2,0,0.3,0c0.1,0,0.1,0,0.2,0c0.1,0,0.2,0.1,0.3,0.2
			c0.1,0.1,0.1,0.2,0.1,0.3c0,0.2,0,0.3-0.1,0.3c-0.1,0.1-0.2,0.2-0.3,0.2c-0.1,0-0.1,0-0.2,0C145.7,77.5,145.6,77.5,145.5,77.5z
			 M145.7,75.3c-1.3,0-2.3,1.1-2.3,2.4c0,1.3,1,2.4,2.3,2.4c1.3,0,2.3-1.1,2.3-2.4C148,76.3,147,75.3,145.7,75.3z M145.7,79.8
			c-1.2,0-2.1-1-2.1-2.2c0-1.2,1-2.2,2.1-2.2c1.2,0,2.1,1,2.1,2.2C147.8,78.8,146.9,79.8,145.7,79.8z"/>
	</g>
</g>
</svg>
