<?xml version="1.0" encoding="utf-8"?>
<!-- Generator: Adobe Illustrator 18.0.0, SVG Export Plug-In . SVG Version: 6.00 Build 0)  -->
<!DOCTYPE svg PUBLIC "-//W3C//DTD SVG 1.1//EN" "http://www.w3.org/Graphics/SVG/1.1/DTD/svg11.dtd">
<svg version="1.1" id="Objects" xmlns="http://www.w3.org/2000/svg" xmlns:xlink="http://www.w3.org/1999/xlink" x="0px" y="0px"
	 viewBox="0 0 30.9 27.9" enable-background="new 0 0 30.9 27.9" xml:space="preserve">
<path fill="#FFCE76" d="M30.5,10.2c-0.2-0.6-1.1-3.4-3.6-5.8c0,0,0-0.1-0.1-0.1c-6-6-15.9-5.8-22.1,0.4C-1.4,11-1.6,20.8,4.4,26.8
	C4.6,27,4.8,27.2,5,27.4c0.2,0.2,0.3,0.4,0.5,0.5l4.4-4.4c0,0,0-0.1-0.1-0.1l0,0c0,0,0,0,0,0c-0.6-0.7-1.2-1.5-1.6-2.3
	c0,0,0-0.1,0-0.1c-0.2-0.4-0.4-0.8-0.6-1.3c-0.2-0.5-0.3-0.9-0.5-1.4C5.6,12.9,8.9,7.4,14.2,6c4.4-1.1,8.9,1.5,10,5.9
	c0.9,3.6-1.3,7.3-4.9,8.3c-3,0.8-6.1-1-6.9-4.1c-0.6-2.5,0.9-5.1,3.4-5.7c0.5-0.1,1.1,0.2,1.2,0.7c0.1,0.5-0.2,1.1-0.7,1.2
	c-1.4,0.4-2.3,1.8-1.9,3.3c0.5,1.9,2.5,3.1,4.4,2.6c2.6-0.7,4.1-3.3,3.4-5.8c-0.9-3.3-4.3-5.3-7.6-4.5c-4.3,1.1-6.9,5.5-5.8,9.8
	c0.1,0.4,0.2,0.8,0.4,1.1c0,0.1,0.1,0.1,0.1,0.2c0.1,0.3,0.2,0.6,0.4,0.9c0,0.1,0.1,0.1,0.1,0.2c0.2,0.3,0.3,0.6,0.5,0.8
	c0,0,0,0.1,0.1,0.1c0.2,0.3,0.4,0.6,0.7,0.9c2.5,2.8,6.4,4.2,10.3,3.2C28.2,23.5,32,18.8,30.5,10.2z"/>
</svg>
