<?xml version="1.0" encoding="utf-8"?>
<!-- Generator: Adobe Illustrator 18.0.0, SVG Export Plug-In . SVG Version: 6.00 Build 0)  -->
<!DOCTYPE svg PUBLIC "-//W3C//DTD SVG 1.1//EN" "http://www.w3.org/Graphics/SVG/1.1/DTD/svg11.dtd">
<svg version="1.1" id="Layer_1" xmlns="http://www.w3.org/2000/svg" xmlns:xlink="http://www.w3.org/1999/xlink" x="0px" y="0px"
	 viewBox="0 0 89 41.4" enable-background="new 0 0 89 41.4" xml:space="preserve">
<g>
	<path fill="none" d="M7,12.4c-2.1-0.6-3.9-1.1-3.9-2.6c0-1.5,1.3-2.5,3.3-2.5c1.4,0,3.3,0.3,4.7,2l0.1,0.2l1.5-1.9l-0.1-0.1
		C11.1,5.8,9,4.9,6.6,4.9c-3.5,0-6,2.1-6,5c0,3.4,3,4.3,5.7,5c2.3,0.6,4.2,1.2,4.2,3c0,1.3-1,2.8-3.8,2.8c-2.8,0-4.5-1.7-5.1-2.4
		l-0.2-0.2L0,20.1l0.1,0.1C1.7,22,4,23,6.7,23c4.7,0,6.4-2.7,6.4-5.2C13.1,14,9.7,13.1,7,12.4z M28.7,4.9c-2.4,0-4.6,0.9-6.2,2.6
		c-1.5,1.6-2.4,3.9-2.4,6.4c0,2.5,0.8,4.8,2.4,6.4c1.5,1.7,3.7,2.6,6.2,2.6c5,0,8.5-3.8,8.5-9C37.2,8.7,33.6,4.9,28.7,4.9z
		 M28.7,20.7c-1.8,0-3.3-0.7-4.4-1.9c-1-1.2-1.6-2.9-1.6-4.8c0-4,2.4-6.7,6-6.7c3.5,0,6,2.8,6,6.7C34.7,17.9,32.2,20.7,28.7,20.7z
		 M57.1,18.3c-1,1.5-2.7,2.4-4.5,2.4c-3.6,0-6.3-2.8-6.3-6.7c0-3.9,2.6-6.7,6.3-6.7c1.8,0,3.5,0.9,4.5,2.4l0.1,0.1l2.1-1.2l-0.1-0.2
		c-1.6-2.3-3.8-3.5-6.5-3.5c-2.4,0-4.6,0.9-6.3,2.5c-1.7,1.6-2.6,4-2.6,6.5c0,2.6,0.9,4.9,2.6,6.5c1.6,1.6,3.8,2.5,6.3,2.5
		c2.7,0,4.9-1.2,6.5-3.5l0.1-0.2l-2.1-1.2L57.1,18.3z M69,5.2h-2.5v17.5H69V5.2z M87.2,0h-2.6l-3.3,3.5h1.8L87.2,0z M80.1,20.4v-5.5
		h8.2v-2.3h-8.2V7.5h8.7V5.2H77.6v17.5H89v-2.3H80.1z M23.8,40.3c-0.5,0.6-0.9,0.8-1.4,0.8c-1.7,0-2.6-1.4-2.6-3
		c0-0.4,0-0.4,0.4-0.4h2.9c0.7,0,0.9,0,0.9-0.1c0-0.1,0.1-0.2,0.1-0.4c0-1-0.9-1.9-2.2-1.9c-1.9,0-3.2,1.6-3.2,3.6
		c0,0.7,0.2,1.5,0.7,2.1c0.5,0.6,1.3,1.1,2.3,1.1c0.8,0,2-0.4,2.5-1.5C24.1,40.4,24,40.3,23.8,40.3z M21.7,35.7c0.9,0,1.2,0.6,1.2,1
		c0,0.2,0,0.3-0.1,0.3c-0.1,0.1-0.5,0.2-1.6,0.2h-1.1c-0.1,0-0.1,0-0.1-0.1C20,36.6,20.8,35.7,21.7,35.7z M28.8,38
		c-0.6-0.3-1.2-0.7-1.2-1.3c0-0.6,0.4-1,1-1c0.6,0,1.1,0.5,1.4,1.2c0.1,0.1,0.3,0.1,0.4,0c0-0.4-0.1-0.9-0.3-1.3
		c-0.1-0.1-0.7-0.3-1.4-0.3c-1.2,0-2.1,0.7-2.1,1.8c0,0.9,0.6,1.4,1.6,2c0.6,0.3,1.2,0.7,1.2,1.5c0,0.7-0.5,1-1.1,1
		c-0.9,0-1.4-0.8-1.7-1.6c-0.1-0.1-0.3-0.1-0.4,0c0,0.5,0.1,1.3,0.2,1.6c0.4,0.3,0.9,0.5,1.7,0.5c1.2,0,2.3-0.6,2.3-1.8
		C30.4,39,29.7,38.5,28.8,38z M34.5,36.1h1.8c0.1-0.1,0.2-0.5,0-0.7h-1.7c-0.3,0-0.3,0-0.3-0.3v-0.7c-0.1-0.1-0.3-0.1-0.3-0.1
		c-0.2,0.3-0.5,0.8-0.7,0.9c-0.2,0.1-0.6,0.4-1,0.5c-0.1,0.1,0,0.3,0,0.3h0.4c0.3,0,0.3,0,0.3,0.5v3.7c0,1,0.3,1.7,1.6,1.7
		c0.8,0,1.4-0.4,1.7-0.7c0-0.1,0-0.3-0.2-0.3c0,0-0.3,0.2-0.4,0.2c-0.1,0-0.3,0.1-0.4,0.1c-1,0-1.2-0.8-1.2-1.8v-3
		C34.2,36.2,34.3,36.1,34.5,36.1z M45,41.4c-0.6-0.1-0.6-0.2-0.6-1.4v-2.7c0-1.1-0.5-2.1-2-2.1c-0.8,0-1.6,0.4-2.1,0.8
		c0,0-0.1-0.2-0.1-0.3v-2.3c0-0.7,0-1.5,0-2c0-0.1-0.1-0.1-0.2-0.1c-0.6,0.3-1.3,0.5-1.7,0.7c-0.1,0-0.1,0.3,0,0.3l0.2,0.1
		c0.5,0.3,0.5,0.4,0.5,1.3V40c0,1.2,0,1.3-0.6,1.4l-0.4,0c-0.1,0.1-0.1,0.4,0,0.4c0.5,0,1,0,1.5,0c0.6,0,1,0,1.5,0
		c0.1,0,0.1-0.3,0-0.4l-0.3,0c-0.6-0.1-0.6-0.2-0.6-1.4v-2.7c0-0.6,0-0.6,0.3-0.9c0.3-0.2,0.7-0.4,1.2-0.4c1,0,1.5,0.7,1.5,1.7V40
		c0,1.2,0,1.3-0.6,1.4l-0.3,0c-0.1,0.1-0.1,0.4,0,0.4c0.4,0,0.9,0,1.5,0c0.6,0,1,0,1.6,0c0.1,0,0.1-0.3,0-0.4L45,41.4z M52.2,40.3
		c-0.5,0.6-0.9,0.8-1.4,0.8c-1.7,0-2.6-1.4-2.6-3c0-0.4,0-0.4,0.4-0.4h2.9c0.7,0,0.9,0,0.9-0.1c0-0.1,0.1-0.2,0.1-0.4
		c0-1-0.9-1.9-2.2-1.9c-1.9,0-3.2,1.6-3.2,3.6c0,0.7,0.2,1.5,0.7,2.1C48.2,41.6,49,42,50,42c0.8,0,2-0.4,2.5-1.5
		C52.5,40.4,52.4,40.3,52.2,40.3z M50.1,35.7c0.9,0,1.2,0.6,1.2,1c0,0.2,0,0.3-0.1,0.3c-0.1,0.1-0.5,0.2-1.6,0.2h-1.1
		c-0.1,0-0.1,0-0.1-0.1C48.3,36.6,49.1,35.7,50.1,35.7z M56.4,36.1h1.8c0.1-0.1,0.2-0.5,0-0.7h-1.7c-0.3,0-0.3,0-0.3-0.3v-0.7
		c-0.1-0.1-0.3-0.1-0.3-0.1c-0.2,0.3-0.5,0.8-0.7,0.9c-0.2,0.1-0.6,0.4-1,0.5c-0.1,0.1,0,0.3,0,0.3h0.4c0.3,0,0.3,0,0.3,0.5v3.7
		c0,1,0.3,1.7,1.6,1.7c0.8,0,1.4-0.4,1.7-0.7c0-0.1,0-0.3-0.2-0.3c0,0-0.3,0.2-0.4,0.2c-0.1,0-0.3,0.1-0.4,0.1c-1,0-1.2-0.8-1.2-1.8
		v-3C56.1,36.2,56.1,36.1,56.4,36.1z M62.5,41.4c-0.6-0.1-0.6-0.2-0.6-1.4v-2.9c0-0.7,0-1.4,0.1-2c0-0.1-0.1-0.1-0.2-0.1
		c-0.4,0.2-1.3,0.7-1.6,0.8c-0.1,0-0.1,0.2,0,0.3l0.1,0.1c0.4,0.3,0.4,0.4,0.4,1V40c0,1.2,0,1.3-0.6,1.4l-0.3,0
		c-0.1,0.1-0.1,0.4,0,0.4c0.4,0,0.9,0,1.5,0c0.6,0,1,0,1.5,0c0.1,0,0.1-0.3,0-0.4L62.5,41.4z M61.2,33.5c0.4,0,0.8-0.3,0.8-0.8
		c0-0.4-0.3-0.8-0.8-0.8c-0.5,0-0.8,0.3-0.8,0.9C60.4,33.1,60.7,33.5,61.2,33.5z M70,40.1c-0.4,0.5-0.8,1-1.7,1
		c-1.7,0-2.5-1.5-2.5-2.7c0-1.7,1.1-2.6,2.2-2.6c0.6,0,1.2,0.4,1.6,0.8c0.1,0.1,0.1,0.1,0.2,0.1c0.2,0,0.3-0.3,0.3-0.6
		c0-0.3-0.1-0.5-0.2-0.6c-0.4-0.2-1-0.3-1.4-0.3c-2.6,0-3.8,1.8-3.8,3.6c0,1,0.4,1.8,0.9,2.4c0.6,0.5,1.3,0.8,2.2,0.8
		c0.9,0,2.1-0.4,2.6-1.6C70.3,40.2,70.1,40.1,70,40.1z"/>
</g>
</svg>
