<?xml version="1.0" encoding="utf-8"?>
<!-- Generator: Adobe Illustrator 18.0.0, SVG Export Plug-In . SVG Version: 6.00 Build 0)  -->
<!DOCTYPE svg PUBLIC "-//W3C//DTD SVG 1.1//EN" "http://www.w3.org/Graphics/SVG/1.1/DTD/svg11.dtd">
<svg version="1.1" id="Layer_1" xmlns="http://www.w3.org/2000/svg" xmlns:xlink="http://www.w3.org/1999/xlink" x="0px" y="0px"
	 viewBox="0 0 192.9 182.9" enable-background="new 0 0 192.9 182.9" xml:space="preserve">
<g>
	<defs>
		<rect id="SVGID_1_" x="116.9" y="0" width="76" height="74.4"/>
	</defs>
	<clipPath id="SVGID_2_">
		<use xlink:href="#SVGID_1_"  overflow="visible"/>
	</clipPath>
	<g clip-path="url(#SVGID_2_)">
		<defs>
			<rect id="SVGID_3_" x="116.9" y="0" width="76" height="74.4"/>
		</defs>
		<clipPath id="SVGID_4_">
			<use xlink:href="#SVGID_3_"  overflow="visible"/>
		</clipPath>
		<path clip-path="url(#SVGID_4_)" fill="#FFFEF2" d="M137.4,74.4c-2.4-0.1-2.3-0.4-3.7-2.9c-0.6-1.1-0.8-2.6-0.9-4.6
			c-0.1-1.3-0.6-2.9-0.4-4.8c0.2-1.5,1.1-2.9,1.5-4.3c0.4-1.5,0.6-3,1.3-4.4c0.6-1.4,1.4-2.7,2.3-4c0.9-1.3,2-2.2,3.1-3.3
			c1.1-1.1,2.3-1.9,3.5-2.8c1.3-0.8,2.5-1.7,3.9-2.2c1.4-0.5,2.5-1,4.1-1.2c-0.1,2.8-1.1,1.3,0.6,5.2c0.5,1.2,0.7,2.8,1.1,4.5
			c0.3,1.4,0.9,2.9,0.9,4.6c0,1.5-0.2,3.1-0.5,4.7c-0.3,1.5-1.2,2.8-2,4.2c-0.8,1.5-1.4,3-2.3,4.3c-1,1.4-2.1,2.5-3.4,3.5
			c-1.3,1-2.7,1.7-4.3,2.3C140.8,73.8,139.2,74.4,137.4,74.4"/>
		<g opacity="0.5" clip-path="url(#SVGID_4_)">
			<g>
				<defs>
					<rect id="SVGID_5_" x="135.8" y="40.6" width="17.5" height="18.2"/>
				</defs>
				<clipPath id="SVGID_6_">
					<use xlink:href="#SVGID_5_"  overflow="visible"/>
				</clipPath>
				<path clip-path="url(#SVGID_6_)" fill="#F6E868" d="M153,40.6c-2.6,0.2-2.3,0.3-5.1,1.3c-1.5,0.6-3.3,1.1-4.9,2.1
					c-1.5,0.9-3.1,2-4.1,3.3c-1.9,2.4-2.2,3.1-1.8,3c0.4-0.1,1.6-1.2,2.8-2.5c1.4-1.6,0,0.4-1.5,3.1c-0.8,1.4-1.5,3.2-2,4.7
					c-0.9,3.2-0.9,4,0.5,1.9c0.5-0.9,1.2-2.3,2.3-4.1c1.2-2,2.3-3.7,3.2-4.9c1.9-2.4,2.9-2.3,1.1,1.5c-1.7,3.4-1.3,3.5-0.4,2.2
					c0.5-0.9,1.3-2.3,1.9-3.9c0.6-1.5,1.1-2.7,1.9-3.6c1.4-1.5,2.9-2.2,3.4-2.5c-1.5,1.7-1.8,1.2-3.1,3.5c-0.7,1.2-1.3,2.8-1.7,4.4
					c-1.2,4.6-0.6,5.8,0,2.8c0.7-3,1.2,2.3,1.6,4.5c0.4,2.2,1.9,1,2.3-3c0.4-3.9,0.7-1,1.3,0.8c0.6,1.8,3.1,0.9,2.3-2.8
					c-0.2-1.1-0.7-2.6-0.9-4.1c-0.2-1.4-0.3-2.9-0.3-4.2C151.9,42.3,152.1,41,153,40.6"/>
			</g>
		</g>
		<path clip-path="url(#SVGID_4_)" fill="#F6E868" d="M153,40.5c-2.9-0.1-2.7,0.9-5.4,2.2c-1.9,0.9-3.8,2-4.9,3.1
			c-2.7,2.8-0.3,0.9,1.5-0.1c1.8-0.9,1.6-0.2,1,0.6c-0.6,0.8,4.2-4,5-4c0.5,0-0.6,1.9-1.4,4.2c-0.6,1.6-0.9,3.3-0.7,4.5
			c0.6,3.1,1.5-0.9,1.6-2.1c0.1-1.2-0.1-1,0.4,1c0.5,2,0.9-1.1,1.1-3.4C151.4,44.3,152,41.4,153,40.5"/>
		<path clip-path="url(#SVGID_4_)" fill="#F7E786" d="M153.2,40.3c-0.4,0.2-1.2,0.6-1.4,1c-0.2,0.4,0,0.9,0,1.4
			c0,0.9,0.3,1.8,0.7,2.6c1,1.7,1.7,3.6,2.2,5.6c0.5,2,0.5,4,0.3,6.1c-0.2,2-0.9,4-1.7,5.8c-0.8,1.9-1.4,3.8-2.6,5.5
			c-1.2,1.6-3,2.7-4.7,3.9c-0.8,0.6-1.6,1.3-2.5,1.7c-1,0.4-2,0.6-3,0.6c-2,0.2-4.3-0.3-5.9-1.4c1.8,0.8,4,1.2,5.8,0.8
			c1.9-0.3,3.4-1.5,4.9-2.6c1.5-1.2,2.8-2.5,3.8-4.1c1.1-1.6,2.5-3,3.2-4.7c0.7-1.7,0.7-3.7,0.9-5.6c0.2-1.9,0.6-3.8,0.3-5.6
			c-0.3-1.9-1.3-3.6-2.1-5.4c-0.2-0.5-0.1-1-0.2-1.5c-0.1-0.5-0.4-1-0.4-1.5c0-0.5,0.5-1,0.8-1.4C152.1,40.9,152.8,40.5,153.2,40.3"
			/>
		<path clip-path="url(#SVGID_4_)" fill="#FFFEF2" d="M117.7,51.6c-1.3-1.9-0.4-1.9-0.1-4.6c0.1-1.3,0.2-2.8,1.1-4.4
			c0.6-1.2,1.6-2.3,2.8-3.6c0.9-1,1.8-2.4,3.1-3.4c1.1-0.8,2.7-1.2,4.1-2.1c1.5-0.9,2.8-1.6,4.2-2c1.6-0.5,3.1-1,4.6-1.1
			c1.7,0,3.3,0,4.7,0.4c1.6,0.5,2.9,1.4,4.2,2.2c1.4,0.9,2.5,2.1,3.5,3.1c1.9,2,3,1.3,3,3.6c0,2.4-1.2,1.5-3,3.8
			c-0.9,1.1-2,2.3-3.2,3.6c-1.1,1.1-2.1,2.4-3.3,3.5c-1.2,1.1-2.4,2.2-3.8,3.1c-1.4,0.9-3,1.3-4.4,1.9c-1.5,0.7-3,1.3-4.5,1.5
			c-1.6,0.2-3.2,0.4-4.9,0c-1.5-0.4-2.8-1.3-4.3-2.3C120.2,53.9,118.8,52.9,117.7,51.6"/>
		<path clip-path="url(#SVGID_4_)" fill="#F7E786" d="M152.2,39.5c-0.9,1.8-1.8,3.6-2.9,5.4c-1.2,1.7-2.4,3.3-3.8,4.9
			c-1.3,1.6-2.8,3.1-4.4,4.4c-1.6,1.4-3.4,2.5-5.4,3.4c-1,0.4-2,0.7-3.1,0.9c-1.1,0.2-2.1,0.3-3.2,0.3c-2.2-0.1-4.4-0.6-6.2-1.6
			c-1.9-1.1-3.5-2.5-4.7-4.3c-0.6-0.9-1.2-1.8-1.5-2.9c-0.1-0.5,0.1-1.1,0.1-1.6c0-0.5-0.4-1-0.2-1.5c-0.1,1,0.6,1.9,1,2.8
			c0.4,0.9,0.6,2,1.2,2.7c0.6,0.7,1.5,1.3,2.3,1.9c0.8,0.6,1.6,1.2,2.5,1.6c1.8,0.8,3.7,1.1,5.6,1.2c1.9,0,3.8-0.4,5.5-1.2
			c1.8-0.8,3.5-1.8,5-3c1.6-1.2,3.2-2.4,4.6-3.9c0.9-1,1.9-2,2.8-3c0.9-1,1.3-2.4,2.2-3.5C150.5,41.4,151.4,40.5,152.2,39.5"/>
		<g opacity="0.5" clip-path="url(#SVGID_4_)">
			<g>
				<defs>
					<rect id="SVGID_7_" x="130.4" y="36.6" width="22" height="17.1"/>
				</defs>
				<clipPath id="SVGID_8_">
					<use xlink:href="#SVGID_7_"  overflow="visible"/>
				</clipPath>
				<path clip-path="url(#SVGID_8_)" fill="#F6E868" d="M152.4,39.4c-1-2.3-2-0.6-4.9-1.3c-1.4-0.4-3.1-1-4.9-1.2
					c-1.6-0.2-3.3-0.3-5-0.2c-2.5,0.1-4.5,0.2-5.7,0.5c-2.4,0.7-2,1.7,2.1,2c6.2,0.4,2.5,0.8,0.9,1.4c-1.2,0.4-1.6,1.8,1.1,1.8
					c0.9,0,2-0.2,3.6-0.5c1.8-0.3,3.2-0.5,4.4-0.7c3.2-0.5,6.1-2,4.5-0.4c-1.6,1.7-2,0.5-4.5,1.7c-1.3,0.6-2.7,1.6-4.1,2.3
					c-1.5,0.8-2.9,1.5-4.1,2.3c-1.5,1-2.4,1.7-2.8,2.3c-0.9,1.1,0.4,1.4,2.4,0.3c2.9-1.6,0.5,2.4-0.4,3.3c-0.8,0.9-0.5,1.7,3.5-0.8
					c1.2-0.7,2.3-1.8,3.7-2.9c1.1-0.9,2.3-2,3.5-3.1c1.1-1,2.3-2.1,3.4-3.2C150.1,41.7,151.3,40.6,152.4,39.4"/>
			</g>
		</g>
		<path clip-path="url(#SVGID_4_)" fill="#F6E868" d="M152.4,39.5c-0.1,2.5-1.7,1.5-3.8,3.3c-1.2,1-2.6,2.1-3.9,3.1
			c-1.7,1.3-3.2,2.5-4.1,3c-2.6,1.5-2-0.1,1.2-2.2c3.2-2.1,2.1-2.6,0.6-1.6c-1.5,1,0.9-1.9,3.9-3.4c3-1.5,3.5-1.2,2.2-1
			c-1.8,0.3-1.7-0.1-3.6-0.3c-1.3-0.1-2.6-0.4-3.6-0.5c-1.4-0.2-1.6-2.1-0.8-3.6c0.6-1.1,1.9-1.8,3.7-1.4c1.5,0.4,3.1,1,4.4,1.8
			C150.8,38,152.5,37.1,152.4,39.5"/>
		<path clip-path="url(#SVGID_4_)" fill="#FFFEF2" d="M118.1,15.5c1-2.5,1.1-1.9,4.6-2.7c1.3-0.3,3.1,0,5.2,0.2
			c1.3,0.2,2.8,0.7,4.6,1.2c1.4,0.5,2.9,1,4.4,1.8c1.4,0.7,3.1,1,4.5,1.9c1.3,0.9,2.4,2.1,3.6,3.3c1.1,1.1,1.9,2.5,2.8,3.9
			c0.9,1.3,1.7,2.6,2.3,4.2c0.6,1.4,0.9,3,1.1,4.6c0.2,1.5,0.7,3.2,0.6,4.9c-1.5,1.6-2.1,0-4.5,0.1c-1.4,0.1-2.9,0.4-4.4,0.2
			c-0.8-0.1-2.6-0.3-4.8-0.8c-1.4-0.3-2.9-1.2-4.6-1.7c-1.5-0.5-3-1-4.5-1.7c-1.5-0.7-2.8-1.6-4.1-2.6c-1.3-0.9-2.9-1.6-3.9-2.8
			c-1.1-1.2-1.7-2.7-2.3-4.3c-0.6-1.4-1.2-3-1.2-4.7C117.4,19,117.6,17.3,118.1,15.5"/>
		<path clip-path="url(#SVGID_4_)" fill="#F7E786" d="M151.4,38.5c-0.2-0.1-0.3,0.3-0.5,0.2c-0.3,0-0.5-0.1-0.8,0
			c-0.5,0-1,0.3-1.5,0.4c-1.1,0.2-2.1,0.3-3.2,0.6c-1.1,0.2-2.2,0-3.3-0.1c-1.1,0-2.2-0.1-3.2-0.3c-1.4-0.2-2.9-0.4-4.3-0.8
			c-1.4-0.4-2.8-0.8-4.2-1.4c-1.3-0.6-2.4-1.6-3.7-2.4c-1.9-1.2-3.7-2.3-5.2-4c-0.8-0.8-1.3-1.8-1.9-2.7c-0.6-0.9-1.5-1.7-1.9-2.7
			c-0.4-1-0.4-2.2-0.6-3.3c-0.1-1.1-0.4-2.2-0.2-3.3c0.3-1.1,0.5-2.3,1.2-3.2c0.3-0.5,0.7-0.9,1.2-1.3c0.2-0.2,0.7,0,0.9-0.2
			c0.2-0.1,0-0.3,0.3-0.4c-0.3,0.1-0.4-0.2-0.6,0c-0.2,0.2-0.4,0.4-0.6,0.6c-0.3,0.4-0.6,0.9-0.9,1.4c-0.5,0.9-0.2,2.1-0.4,3.1
			c-0.3,2.1-0.4,4.2,0.5,6.1c0.9,1.9,2.2,3.7,3.6,5.2c1.4,1.5,3.4,2.4,5.2,3.5c1.8,1.1,3.7,1.8,5.7,2.6c2,0.8,3.9,1.7,5.9,2.1
			c1,0.2,2.1,0.2,3.1,0.2c1,0.1,2,0.2,3.1,0c1-0.2,2.1-0.4,3.2-0.5c0.6,0,1.1-0.2,1.7-0.2c0.3,0,0.5,0.7,0.8,0.7
			C151.1,38.7,151.2,38.4,151.4,38.5"/>
		<g opacity="0.5" clip-path="url(#SVGID_4_)">
			<g>
				<defs>
					<rect id="SVGID_9_" x="126.5" y="19.2" width="25" height="20.4"/>
				</defs>
				<clipPath id="SVGID_10_">
					<use xlink:href="#SVGID_9_"  overflow="visible"/>
				</clipPath>
				<path clip-path="url(#SVGID_10_)" fill="#F6E868" d="M151.5,38.5c-1.6,1.9-1.8,0.7-4.9,0.8c-1.5,0-3.2-0.1-5-0.3
					c-1.6-0.2-3.3-0.4-5-0.8c-1.6-0.4-3.2-1-4.7-1.7c-2.9-1.3-4.4-2.4-5.1-3.1c-1.4-1.3,1-0.8,4.5,0.3c5.1,1.5,3.8,0.2,1-1.9
					c-2.8-2.1-1.1-1.3,2.7,0.8c3.8,2.1-1.8-1.7-3.3-2.8c-1.1-0.8,0.3-1,3.2,0.4c1,0.5,2.1,1.6,3.5,2.4c2.7,1.5,4.3,1.6,4.2,0.8
					c-0.1-0.6-1-1.8-2.8-3.6c-0.9-0.9-2.1-1.8-3.5-3c-1.6-1.3-2.6-2.7-3.6-3.8c-2.4-2.5-3.4-3.8-2.5-3.8c0.6,0,2.1,0.7,4.4,2.5
					c1.8,1.3,3,2.3,3.9,2.9c2.6,1.7,1.9,0,0.2-2c-1.5-1.7-2.6-3.5-1.7-3.3c0.5,0.1,1.4,1.1,3.2,2.6c1.4,1.1,2.6,1.5,3.2,1.9
					c1.8,1.1,1.1-0.3-0.2-1.8c-0.9-1,1-0.4,3.3,2.4c0.9,1.1,1.4,2.8,2.3,4.6c0.7,1.4,1.3,2.9,1.8,4.7
					C151,35.2,151.3,36.7,151.5,38.5"/>
			</g>
		</g>
		<path clip-path="url(#SVGID_4_)" fill="#F6E868" d="M151.6,38.5c-2.1,1.6-2.2,0.2-5.2,0.1c-1.6-0.1-3.5,0-5.3-0.2
			c-1.9-0.2-3.7-0.7-5.1-1.2c-2.5-0.9-3.5-1.6-3.4-1.9c0.1-0.4,1.5-0.3,3.9,0.1c4.5,0.8,2.5-0.1,1.1-0.9c-1.4-0.7-1.7-1.6,0.4-0.6
			c2.1,1,1.6,0.4-0.1-0.6c-1.7-1,3.7,2,6,1c1.6-0.7,1-1.6-0.8-3.3c-0.8-0.8-1.9-1.8-3.2-3c-1.8-1.6-3-2.7-3.2-3.2
			c-0.3-0.6,1-0.1,3.7,2c4.8,3.7,3.9,1.3,2.1-0.6c-1.8-2,0.4-2.7,2.4,0.3c2.1,3,4.1,5.2,2.2,2.3c-1.1-1.7,0.3-1,1.9,1.5
			c0.7,1,1.4,2.4,1.9,4.1C151.2,35.5,151.5,36.9,151.6,38.5"/>
		<path clip-path="url(#SVGID_4_)" fill="#FFFEF2" d="M150.4,2.9c1.8-1.3,1.6-1.6,3.8-2.4c1.3-0.5,3-0.6,4.4-0.3
			c1.3,0.2,2.8,0.7,3.8,2.1c0.7,1,1.1,2.7,1.8,4.5c0.5,1.4,1.2,2.8,1.5,4.5c0.3,1.5,0.3,3.1,0.3,4.8c0,1.5,0.1,3.2-0.1,4.8
			c-0.3,1.5-0.6,3.1-1.2,4.6c-0.5,1.5-1,3.1-1.8,4.5c-0.8,1.3-2.2,2.3-3.3,3.5c-1,1.1-2,2.4-3.3,3.4c-1.1,1-2.2,1.7-3.7,2.6
			c-2-0.7-1.2-1.3-2.2-3.4c-0.6-1.2-0.7-2.8-1.3-4.1c-0.8-1.5-2.1-2.6-2.6-3.4c-0.4-0.7-0.5-2.5-0.7-4.6c-0.2-1.3-0.5-2.8-0.5-4.5
			c0-1.4,0-3,0.1-4.5c0.1-1.5,0.8-3,1.1-4.4c0.4-1.5,0.8-2.9,1.5-4.2C148.5,5.1,149.2,3.7,150.4,2.9"/>
		<g opacity="0.5" clip-path="url(#SVGID_4_)">
			<g>
				<defs>
					<rect id="SVGID_11_" x="146.1" y="16.8" width="18.7" height="23.1"/>
				</defs>
				<clipPath id="SVGID_12_">
					<use xlink:href="#SVGID_11_"  overflow="visible"/>
				</clipPath>
				<path clip-path="url(#SVGID_12_)" fill="#F6E868" d="M152.3,39.9c-2.3-1-1-2-2.2-4.8c-0.6-1.4-1.4-3-2-4.7
					c-0.6-1.6-1.2-3.3-1.6-4.9c-0.5-1.9-0.5-3.7-0.4-5.1c0.3-3.7,1.3-2.8,2.2-0.8c0.6,1.4,1,3.5,1.4,4.8c0.9,3.2,0.7-1.8,0.5-3.8
					c-0.2-1.9,1.1,1.3,1.2,3.3c0.1,2,1.3,0.6,1.5-1.2c0.1-1.3,0.6,1.1,0.7,4.7c0,1.6,0,3.5-0.4,5.4c-0.5,2.6,0.5,1.7,1.7-0.8
					c0.6-1.1,1.6-2.4,2.2-4c0.6-1.4,0.8-3,1.2-4.4c0.5-1.6,1-3.1,1.1-4.4c0.4-3.9,1.5-2.5,1.9,0.1c0.3,1.7,0.1,3.8-0.6,5.5
					c-1,2.7,0,0.7,1-1.9c0.6-1.6,0.9-3.6,1.1-4.7c0.5-2.9,1.6,0.5,0.8,4.4c-0.8,4,0.6,0.9,1-0.4c0.1-0.6,0.4,1.2-0.6,4.1
					c-0.4,1.2-1.1,2.5-2,4c-0.7,1.1-1.6,2.3-2.7,3.6c-0.9,1-2.1,1.9-3.3,3C154.9,37.9,153.6,39,152.3,39.9"/>
			</g>
		</g>
		<path clip-path="url(#SVGID_4_)" fill="#F6E868" d="M152.4,39.7c-2.4-0.7-0.8-2-1.9-4.6c-0.6-1.5-1.5-3-2.1-4.6
			c-0.7-1.9-1.2-3.8-1.4-4.8c-0.6-3.4,0.6-3.9,1.6-0.1c1,3.8,1.5,4,1.5,2.3c0.1-1.7,1.6-4,1.5-0.1c-0.1,3.9,1.3,7.6,1.1,5.2
			c-0.2-2.4,0.6,1.7,0.5,2.7c-0.1,0.7,1.7-1.3,3.2-3.9c0.9-1.5,1.8-3.3,2.2-4.8c1-4,2-3.4,1.2,0c-0.8,3.4,0.4,2.2,0.8,0
			c0.4-2.2,1.1-0.4,0.5,0.8c-0.6,1.3-0.3,1.7,0.7,0.1c0.6-1.1,1.2,0.4-1.6,4.1c-0.9,1.1-2.1,2.5-3.8,4
			C155.3,37.2,154,38.4,152.4,39.7"/>
		<path clip-path="url(#SVGID_4_)" fill="#F7E786" d="M150.4,36.8c0.1-0.5-0.1-0.9-0.2-1.3c-0.1-0.4,0-1-0.2-1.4
			c-0.4-0.8-0.9-1.6-1.4-2.4c-0.2-0.4-0.8-0.6-1-1c-0.2-0.4-0.3-0.9-0.5-1.4c-0.4-0.9-1-1.7-1.3-2.6c-0.6-1.8-0.6-3.8-0.9-5.6
			c-0.3-1.9-0.5-3.8-0.4-5.6c0.1-1.9,0.3-3.8,0.9-5.6c0.6-1.8,1.6-3.5,2.9-5c0.6-0.7,1.2-1.6,1.9-2.2c0.8-0.6,1.7-0.9,2.6-1.3
			c1.7-0.8,3.6-1.2,5.4-1.4c-1.8,0.5-3.6,0.9-5.2,1.8c-1.6,0.9-2.7,2.4-3.8,3.8c-1.1,1.4-2,2.9-2.6,4.6c-0.5,1.7-1,3.5-1.1,5.3
			c-0.1,1.8,0.5,3.6,0.7,5.4c0.2,1.8,0,3.7,0.4,5.4c0.2,0.9,0.6,1.8,0.9,2.6c0.2,0.4,0.7,0.6,0.9,1.1c0.2,0.4,0.1,1,0.3,1.4
			c0.4,0.9,1,1.6,1.3,2.5c0.1,0.4,0.3,0.9,0.3,1.4c0,0.2-0.1,0.5-0.1,0.7C150.5,36.4,150.5,36.6,150.4,36.8"/>
		<path clip-path="url(#SVGID_4_)" fill="#FFFEF2" d="M180.8,23.7c2.4,0.7,1.8,1.2,4.2,2.7c1.3,0.8,2.8,1.6,4.1,2.7
			c1.3,1.1,2.2,2.5,2.9,3.9c0.8,1.5,1.1,2.9,0.7,4.6c-0.3,1.3-1.2,2.6-2.8,3.8c-1.2,0.9-2.6,1.7-4.2,2.4c-1.4,0.6-3,1-4.7,1.4
			c-1.5,0.4-3.1,1.1-4.7,1.3c-1.6,0.2-3.3,0.1-4.9,0.1c-1.6,0-3.3,0-4.9-0.3c-1.6-0.2-3.3-0.6-4.8-1.1c-1.5-0.5-3.1-1.2-4.5-2
			c-1.4-0.8-2.7-1.9-3.9-3c-0.5-0.4-0.5-0.3-0.5-0.9c0-2.5,0.5-1.8,2.4-4.1c0.9-1.1,1.8-2.6,3.1-3.8c1.1-1.1,2.7-1.7,4.1-2.7
			c1.3-0.9,2.6-1.9,4.1-2.6c1.4-0.7,3-1.1,4.6-1.5c1.5-0.4,3.1-0.9,4.8-1C177.4,23.6,179.1,23.5,180.8,23.7"/>
		<path clip-path="url(#SVGID_4_)" fill="#F7E786" d="M152.6,39.3c0.9-1.9,2-4.1,3.2-5.9c1.3-1.7,2.7-3.4,4.3-4.9
			c1.5-1.5,3.4-2.8,5.3-3.9c1-0.6,2-0.9,3.1-1.3c0.5-0.2,1-0.8,1.6-0.9c0.2,0,0.3,0.2,0.5,0.2c0.2,0,0.2-0.1,0.4-0.2
			c0.3,0,0.6,0,0.9,0c2.2-0.3,4.5-0.3,6.7,0.1c2.2,0.4,4.3,1.3,6.2,2.2c2,1,3.9,2.2,5.4,3.8c0.7,0.8,1.1,1.9,1.6,2.8
			c0.3,0.5,0.9,0.8,1,1.3c0.1,0.5-0.1,1.2-0.1,1.8c-0.3-1-0.6-2.1-1.2-2.9c-0.6-0.8-1.4-1.6-2.2-2.2c-0.8-0.6-1.8-1-2.7-1.5
			c-0.9-0.5-1.8-0.9-2.7-1.3c-1.3-0.5-2.4-1.3-3.8-1.5c-1.3-0.3-2.7-0.2-4-0.3c-1.3-0.1-2.7-0.4-4.1-0.2c-1.3,0.1-2.7,0.4-3.9,1
			c-1.2,0.5-2.5,1.1-3.6,1.9c-1.1,0.7-2.2,1.5-3.3,2.4c-1.6,1.3-3.1,2.8-4.6,4.3C155.2,35.6,153.9,37.7,152.6,39.3"/>
		<g opacity="0.5" clip-path="url(#SVGID_4_)">
			<g>
				<defs>
					<rect id="SVGID_13_" x="152.3" y="26.4" width="29.1" height="18.8"/>
				</defs>
				<clipPath id="SVGID_14_">
					<use xlink:href="#SVGID_13_"  overflow="visible"/>
				</clipPath>
				<path clip-path="url(#SVGID_14_)" fill="#F6E868" d="M152.3,39.4c0-2.3,1.2-1.5,3.2-3.5c1-1,2.2-2,3.5-3.1c1.2-1,2.3-2.1,3.6-3
					c1.3-0.9,2.8-1.4,4.2-2c1.5-0.6,3-0.9,4.5-1.1c1.9-0.2,3.2-0.3,4.1-0.2c2.1,0.1,1,0.9-1.1,1.8c-1.1,0.5-2.5,1-3.8,1.5
					c-2.8,1-1.6,0.8,0.1,0.2c1.2-0.4,2.8-0.9,3.5-1.1c1.7-0.4-0.1,1.3-3.1,2.5c-3,1.2,2.8,0.6,4.3,0.7c1.1,0-0.6-0.1-5,1.3
					c-1.5,0.5-3.4,0.9-5.6,1.8c-2.2,0.9-3.1,1.8-3.5,2c-0.7,0.4,1-0.4,3.5-0.9c1.3-0.2,2.7-0.4,4-0.5c1.3-0.1,2.9,0,4.4,0.1
					c1.6,0.1,3.2,0.2,4.4,0.4c2.6,0.4,3.9,1.1,1.7,1.7c-4.5,1.1-4,1.1-0.1,1.5c4,0.3,2.2,1.7-1.7,3.1c-3.9,1.4-2.6,1.7-0.2,1.6
					c0.9-0.1-0.7,0.6-3.8,0.9c-1.3,0.1-2.8,0.2-4.5,0.2c-1.4,0-2.8-0.5-4.4-0.8c-1.4-0.2-2.8-0.6-4.3-1.1c-1.4-0.5-2.9-0.7-4.3-1.4
					C154.8,41.3,153.6,40.4,152.3,39.4"/>
			</g>
		</g>
		<path clip-path="url(#SVGID_4_)" fill="#F6E868" d="M152.3,39.4c0.1-2.3,1.5-1.4,3.6-3.2c1.1-0.9,2.3-1.9,3.7-3
			c1.2-1,2.5-2,3.8-2.8c1.5-1,2.9-1.9,4.1-2.3c2.8-1,1.3,0.1-0.4,1.4c-1.7,1.2-3.5,2.9-1.7,2.6c1.9-0.3,4-1-0.4,1.7
			c-1.4,0.9-2.9,1.4-3.9,1.9c-2.1,1.1-2.7,1.4,0.4,1.4c4.6-0.2,5.3,0.8,3,1c-2.3,0.2,2.8-0.5,5.9-0.6c2.1-0.1,3.4,1.8,1.1,2.8
			c-1,0.4-2.6,0.4-4.9,0.3c-4.3-0.2-4.4,0-3,0.3c1.1,0.3,3.2,0.7,4.6,0.8c3.1,0.3,2.6,1.4-2.6,0.7c-5.2-0.7-5.1,0.4-2.6,1
			c1.5,0.3,0.1,0.6-2.8-0.3c-1.1-0.3-2.4-0.9-3.9-1.7C154.9,41,153.6,40.3,152.3,39.4"/>
		<path clip-path="url(#SVGID_4_)" fill="#FFFEF2" d="M177.5,56.2c0.7,2.4,1,2.1,0.6,5c-0.2,1.5-0.9,3.2-1.8,4.8
			c-0.7,1.3-2.1,2.4-3.5,3.6c-1.2,1-2.6,1.2-4.4,0.7c-1.3-0.4-2.9-1-4.3-2c-1.3-0.8-2.5-1.9-3.7-3.1c-1.1-1.1-2.2-2.2-3.3-3.5
			c-1-1.2-2-2.5-2.8-3.9c-0.8-1.4-1.3-2.9-1.9-4.4c-0.6-1.5-1.2-3-1.4-4.6c-0.2-1.6-0.2-3.2,0-4.8c0.3-1.6,0.8-3.2,1.6-4.6
			c2-1.6,1.2-0.2,5,1.3c1.1,0.4,2.7,1.4,4.7,2.3c1.4,0.6,3,1.4,4.6,2.3c1.5,0.8,2.8,2,4.2,3.1c1.4,1.1,2.6,2.3,3.6,3.6
			C176.1,53.2,177,54.6,177.5,56.2"/>
		<g opacity="0.5" clip-path="url(#SVGID_4_)">
			<g>
				<defs>
					<rect id="SVGID_15_" x="151.9" y="39.5" width="17.1" height="19.7"/>
				</defs>
				<clipPath id="SVGID_16_">
					<use xlink:href="#SVGID_15_"  overflow="visible"/>
				</clipPath>
				<path clip-path="url(#SVGID_16_)" fill="#F6E868" d="M152.9,39.5c-1.9,1.2-0.7,1.6-0.9,4.2c-0.1,1.3,0.1,2.8,0.3,4.4
					c0.2,1.4,0.3,2.9,0.8,4.3c0.5,1.3,1.2,2.6,2.1,3.9c3,4,3.1,3.2,2.2,1.4c-0.7-1.5-2.1-3.8-2.5-4.8c-0.9-2.4,0.6,0.4,3.6,3.6
					c3,3.2,2.1,1.1,0.7-1.7c-1.4-2.8-2-3.7-0.6-1.8c1,1.4,1.4-0.4-0.3-3.9c-0.6-1.3-1.5-2.9-2.6-4.7c0-2.1,1.1,1.5,2.6,3.3
					c0.8,1,2,1.9,2.9,2.9c1.2,1.3,2,2.7,2.7,3.1c2.1,1.4,2.5,0.2,0.2-2.8c-2.3-3.1,2.8,1,3.8,2.2c1.1,1.2,1.5-1.7-0.6-3.8
					c-2.1-2.1-0.5-2.2,0.3-1.2c0.4,0.5-0.3-1-2.8-3c-1-0.8-2.1-1.7-3.7-2.6c-1.2-0.6-2.7-1-4.2-1.6
					C155.8,40.4,154.5,39.9,152.9,39.5"/>
			</g>
		</g>
		<path clip-path="url(#SVGID_4_)" fill="#F6E868" d="M152.8,39.4c-1.8,2.2-0.1,2.7,0,5.7c0.1,2,0.2,4.2,0.8,5.6
			c1.4,3.6,2.1,1.5,1.4-2.4c-0.8-3.9,0.5-1.7,1-0.5c0.6,1.2,0.6-2.3-0.1-3.5c-0.7-1.2,0.6-0.3,2.7,1.8c2.1,2.1,2.4,0.7,0.6-1
			c-1.8-1.6,2,0.4,3.6,1.3c1.6,0.9,1.8-0.2-0.5-1.7c-2.3-1.5-1.3-1.4,0-1.1c0.8,0.2-1.1-1.6-4.2-3C156.6,40,154.7,39.5,152.8,39.4"
			/>
		<path clip-path="url(#SVGID_4_)" fill="#F7E786" d="M153.2,38.8c0.4,0.2,0.8,0.4,1.2,0.5c0.4,0.2,0.9,0.1,1.3,0.3
			c0.8,0.3,1.6,0.7,2.5,1c0.9,0.2,1.7,0.5,2.6,0.7c0.9,0.2,1.9,0.3,2.7,0.6c1.7,0.7,3.2,1.8,4.7,2.8c1.5,1,2.8,2.3,4.2,3.5
			c1.3,1.3,2.6,2.6,3.6,4.2c1,1.6,1.9,3.2,2.2,5.1c0.2,0.9-0.1,1.9-0.1,2.8c-0.1,0.9-0.3,1.8-0.5,2.7c-0.5,1.8-1.4,3.7-2.5,5.1
			c0.9-1.6,2-3.4,2.3-5.1c0.3-1.7,0-3.5-0.4-5.1c-0.4-1.6-1.3-3.1-2.2-4.6c-1-1.4-1.9-2.9-3.2-4c-1.2-1.2-2.6-2.3-4.1-3.3
			c-1.4-1-2.9-1.9-4.5-2.7c-0.8-0.4-1.7-0.4-2.5-0.7c-0.8-0.3-1.4-1.2-2.3-1.5c-0.8-0.4-1.8-0.4-2.6-0.8c-0.4-0.2-0.9-0.2-1.3-0.4
			c-0.2-0.1-0.4-0.3-0.5-0.4C153.5,39.1,153.4,38.9,153.2,38.8"/>
		<path clip-path="url(#SVGID_4_)" fill="#FFFEF2" d="M148.1,37.2L148.1,37.2l-0.1,0.3c-1.6-0.4-1.6-0.4-3.2-0.9
			c-1.2-0.4-1-0.8-2.2-1.2c-0.8-0.3-1.5-0.7-2.3-1c-0.6-0.2-0.5-0.4-1.1-0.6c-0.1-0.1-0.2,0.2-0.4,0.1c0,0-0.1,0.2-0.2,0.2
			c0,0-0.1,0.1-0.1,0c-0.1,0,0-0.3,0-0.3c-0.3-0.1-0.3,0-0.6-0.1c-1.2-0.4-1-0.7-2.1-1.3c-1.4-0.8-1.6-0.6-2.9-1.5
			c0,0-0.1,0.1-0.1,0.1l0.3-0.5c-1.5-0.7-1.6-0.4-3.1-1.2c-1.4-0.8-1.6-0.7-2.8-1.7c-1.3-1.1-1.2-1.2-2.3-2.4c0,0,0.2-0.2,0.2-0.2
			l-0.3,0.3c-1.3-1-1.4-3.4-2.5-2.1c-1.1,1.3,1.3,0.9,2.5,2.1c1.2,1.2,0.9,1.4,2,2.6c0,0,0.1-0.1,0.1-0.1c0,0,0,0,0,0
			c1.4,0.9,1.6,0.5,3,1.4l-0.1,0.2h0c1.5,0.7,1.5,0.7,2.9,1.6c1.4,0.8,1.2,1.1,2.6,2c0,0,0.3-0.5,0.3-0.5c0,0-0.1,0.2-0.1,0.2
			c1.2,0.4,1.2,0.4,2.3,0.8c0.3,0.1,0.2,0.5,0.5,0.6c0.1,0,0.3-0.5,0.3-0.5c0,0-0.1,0.4-0.1,0.4c0,0,0,0.2,0,0.2
			c0.1,0.1,0.2-0.1,0.4-0.1c0.6,0.2,0.5,0.4,1.1,0.7c0.8,0.3,1.7,0.2,2.5,0.5c1.1,0.5,1,0.8,2.2,1.2v0l0.1-0.3
			C146.5,36.8,146.6,36.6,148.1,37.2c1.6,0.4,1.3,1.1,2.9,1.7C152.6,39.5,149.6,37.9,148.1,37.2"/>
		<path clip-path="url(#SVGID_4_)" fill="#FFFEF2" d="M132.1,27.2l0.1-0.2c0,0,0,0,0,0c0.8,0.6,1.7,1.1,2.6,1.6
			c1.2,0.9,1.1,1.1,2.3,2c0,0,0,0,0,0c0,0,0.1-0.3,0.2-0.3c1.4,0.6,1.4,0.6,2.7,1.3c0.8,0.6,1.6,1.3,2.4,1.9l-0.1,0.2
			c0,0,0.1-0.2,0.1-0.2c1.3,0.8,1.3,0.8,2.6,1.6l0,0.1c0,0,0,0,0,0c1.4,0.6,2.3,2.5,3,1.1c0.7-1.4-1.5-0.6-2.9-1.3
			c-1.3-0.7-1.3-0.7-2.6-1.5c-0.8-0.6-1.7-1.1-2.5-1.7v0c0,0,0.1-0.2,0.1-0.2c-1.4-0.6-1.5-0.3-2.8-1.1c-1.3-0.8-1-1.2-2.3-2
			c-0.9-0.5-1.7-1-2.6-1.6c-1.2-0.9-1.3-0.8-2.5-1.7c-1.2-1-1.1-3.1-2.1-2c-1,1.2,1,0.9,2.1,2C130.9,26.2,131,26.2,132.1,27.2"/>
		<path clip-path="url(#SVGID_4_)" fill="#FFFEF2" d="M146.3,32.4c0,0,0.2-0.1,0.2-0.2c0,0-0.3,0.3-0.3,0.2c-1-1.2-1-1.2-2-2.4
			c-1-1.2-0.8-1.3-1.8-2.6c0,0-0.2,0.1-0.2,0.1c0,0,0.1-0.1,0.1-0.1c-0.5-0.6-0.6-0.5-1.2-1.1c-0.5-0.5-0.6-0.5-1.1-1.1
			c-1.1-1.1-0.9-1.3-2-2.4c0,0-0.3,0.3-0.3,0.3l0,0c-1.2-1-1.2-1-2.4-2c0,0,0.1-0.1,0.1-0.1l0,0c-0.7-0.4-0.7-0.4-1.3-0.8
			c-0.7-0.4-1-1.4-1.4-0.7c-0.4,0.7,0.7,0.3,1.4,0.7c0.7,0.4,0.6,0.5,1.2,1c1.2,0.9,1.3,0.9,2.4,1.9c1.1,1.1,1,1.2,2.1,2.3
			c0.5,0.6,0.7,0.4,1.2,1c0.6,0.5,0.4,0.7,0.9,1.3c1,1.2,1.1,1.1,2.1,2.3l-0.1,0.1l0.2-0.1C145.3,31.2,145.2,31.3,146.3,32.4
			c0.5,0.6,0.4,0.7,0.9,1.3c0.5,0.6,0.3,1.7,0.9,1.2c0.6-0.5-0.6-0.5-1.1-1.1C146.6,33.1,146.8,33,146.3,32.4"/>
		<path clip-path="url(#SVGID_4_)" fill="#FFFEF2" d="M149.9,27.5c-0.3-1.6-0.2-1.6-0.4-3.2c-0.1-1.2-0.1-1.2-0.2-2.4
			c-0.1-0.8-0.2-1.6-0.2-2.4c0-0.8,0.2-1.6,0.1-2.4c0-1.2-0.2-1.2-0.2-2.4c0-1.6-0.1-1.6,0.1-3.2c0.2-1.6,2.3-2.8,0.7-3
			c-1.6-0.2-0.3,1.4-0.6,3l-0.1,0c0,0,0.1,0,0.1,0c-0.2,1.6-0.4,1.6-0.6,3.2l0.2,0l-0.1,0c0,1.2,0.1,1.2,0.1,2.4
			c0,0.8,0.1,1.6,0.1,2.4c0,0.8,0.1,1.6,0.2,2.4c0,1.2-0.1,1.2-0.1,2.4l-0.1,0c0,0,0.2,0,0.2,0c0.6,3.2,0.5,3.2,1.1,6.3
			c0,0,0.2,0,0.2,0c0,0-0.3,0.1-0.3,0.1c0.7,1.5,1,1.3,1.6,2.8c0.6,1.5-0.6,3.5,0.9,3c1.5-0.5-0.5-1.4-0.9-2.9l0,0c0,0-0.1,0-0.1,0
			c-0.6-1.5-0.5-1.5-1.1-3C150.4,29.6,150.1,28.6,149.9,27.5"/>
		<path clip-path="url(#SVGID_4_)" fill="#FFFEF2" d="M157.2,8.6c0,0.8,0.1,0.8,0.1,1.7c-0.2,2.5,0,2.5-0.3,5
			c-0.1,0.6-0.3,0.6-0.3,1.2c0,0.2-0.2,0.1-0.2,0.3c0,0,0.4,0.1,0.4,0.1c0,0-0.3,0-0.3,0c0,0,0.2,0,0.2,0c0,0-0.3,0-0.3,0
			c0,0.1,0.1,0.1,0.1,0.2c0,0.3,0.2,0.3,0.2,0.6c-0.1,1.2-0.2,1.2-0.3,2.5c-0.3,1.6-0.7,3.3-1,4.9c-0.1,0.8-0.3,1.6-0.5,2.5
			c-0.3,1.2-1.6,2.2-0.4,2.5c1.2,0.3,0.3-1.2,0.6-2.5c0.2-0.8,0.4-1.6,0.6-2.4c0.2-0.8,0.4-1.6,0.5-2.5c0.2-1.2,0.1-1.3,0.4-2.5
			l0.1,0c0,0-0.3,0-0.3,0c0.1-1.3,0.4-1.2,0.5-2.5c0-0.3-0.2-0.3-0.2-0.6c0-0.1-0.1-0.1-0.1-0.2c0,0,0,0,0,0c0,0,0.4,0,0.4,0
			c0,0-0.2,0-0.2-0.1c0,0-0.2-0.1-0.2-0.1c0-0.1,0.3-0.1,0.3-0.3c0.1-0.6,0-0.6,0-1.3c0.1-0.8,0.3-1.6,0.4-2.5
			c0.1-1.3,0.1-1.3,0.2-2.5c0,0-0.2,0-0.2,0c0,0,0,0,0,0c-0.1-0.8,0.2-0.9,0.1-1.7c-0.1-0.8-0.1-0.8-0.3-1.6
			C156.9,6.1,157.1,7.7,157.2,8.6"/>
		<path clip-path="url(#SVGID_4_)" fill="#FFFEF2" d="M155,17.7c-0.1,0.7-0.2,1.4-0.3,2.1c-0.1,0.7-0.3,1.4-0.4,2.1
			c-0.1,1.1-0.2,1.1-0.3,2.1c-0.1,0.7,0,1.4-0.1,2.2c0.2-1.4,0.4-2.8,0.6-4.3c0.2-1.4,0.5-2.8,0.7-4.3L155,17.7c0.1,0,0.3,0,0.3,0
			c0-1-0.1-1.9,0-2.9c0-0.5,0.2-0.9,0.2-1.4c0-0.5,0-1.1,0-1.5c-0.1,0.5-0.3,1-0.3,1.5c-0.1,0.5,0,0.9-0.1,1.4
			C155,15.7,155.1,16.7,155,17.7"/>
		<path clip-path="url(#SVGID_4_)" fill="#FFFEF2" d="M144.6,40.9c-1.1,0.2-2.1,0.3-3.2,0.6c-1.5,0.4-1.5,0.7-3,1.1
			c-1,0.2-2.1,0.3-3.2,0.6l0,0.2c0,0-0.1-0.2-0.1-0.2c-1.5,0.5-3,1.3-4.5,1.9c-0.8,0.3-1.6,0.2-2.4,0.5c-1.1,0.5-1,0.6-2.2,1.1
			c0,0-0.1-0.2-0.1-0.2c0,0,0.1,0.1,0.1,0.1c-1.4,0.8-3.7,0.3-2.9,1.8c0.7,1.4,1.6-0.8,3.1-1.5c1.1-0.5,1.1-0.3,2.3-0.8
			c0.8-0.3,1.4-0.9,2.2-1.1c1.5-0.5,3.1-1,4.6-1.5c1-0.2,2.1-0.5,3.1-0.8c0,0,0,0,0,0l0.1,0.3c1.5-0.5,1.5-0.7,3-1.1
			c1-0.3,2.1-0.5,3.1-0.8c1.6-0.4,1.5-0.6,3.1-0.9c1.6-0.4,3.6,1,3.3-0.6c-0.3-1.6-1.7,0.4-3.3,0.7
			C146.1,40.6,146.1,40.6,144.6,40.9"/>
		<path clip-path="url(#SVGID_4_)" fill="#FFFEF2" d="M134.4,48.7c1.4-0.8,2.8-1.6,4.2-2.4c1.1-0.6,1.1-0.6,2.2-1.1
			c0.7-0.4,1.5-0.7,2.2-1c0.7-0.3,1.4-0.9,2.1-1.3c0.7-0.3,1.6-0.6,2.4-0.9c-0.8,0.3-1.7,0.5-2.4,0.8c-0.8,0.3-1.4,0.9-2.1,1.2
			c-0.7,0.3-1.5,0.6-2.2,0.9c-1.1,0.5-1.1,0.6-2.1,1.1c-2.1,1.2-2.2,1-4.3,2.2c-0.7,0.4-1.4,0.7-2.1,1.2c-0.7,0.4-1.3,1-2,1.4
			c0.7-0.4,1.4-0.7,2.1-1.1C133,49.4,133.7,49.1,134.4,48.7"/>
		<path clip-path="url(#SVGID_4_)" fill="#FFFEF2" d="M142.7,57c0.4-0.8,0.8-1.5,1.2-2.2c0.4-0.7,0.6-1.5,1-2.3
			c0.4-0.7,0.4-0.7,0.9-1.4c0.5-0.7,0.5-0.7,1-1.4c0.3-0.4,0.6-0.9,1-1.4c0.3-0.4,0.6-0.8,0.9-1.3c-0.4,0.4-0.5,0.9-0.9,1.3
			c-0.4,0.4-0.9,0.7-1.2,1.1l0.1,0.1c0,0,0,0,0,0c-0.5,0.7-0.5,0.7-1,1.4c-0.4,0.7-0.4,0.8-0.8,1.4c0,0,0,0,0,0c0,0,0,0,0,0
			c-0.4,0.8-0.7,1.5-1.1,2.3c-0.3,0.8-0.9,1.4-1.3,2.2c-0.4,0.8-0.6,1.5-1,2.3c-0.3,0.8-0.6,1.4-0.9,2.2c0.4-0.8,0.7-1.4,1.1-2.1
			C141.9,58.4,142.4,57.8,142.7,57"/>
		<path clip-path="url(#SVGID_4_)" fill="#FFFEF2" d="M147.4,52c0.5-0.9,0.8-1.9,1.2-2.8c-0.5,0.9-1,1.8-1.5,2.7
			c-0.5,0.9-1.1,1.8-1.6,2.7c-0.7,1.4-0.7,1.4-1.3,2.8c-0.7,1.4-0.5,1.5-1.1,2.9c0,0-0.1,0-0.1,0c0,0-0.1,0-0.1,0
			c-0.3,1-0.5,2-0.8,3c-0.3,1-0.6,2.1-0.9,3.1c0.4-1,0.7-2.1,1-3.1c0.3-1,0.7-2,1-3c1.3-2.9,1.2-2.9,2.5-5.7
			C146.3,53.7,147,52.9,147.4,52"/>
		<path clip-path="url(#SVGID_4_)" fill="#FFFEF2" d="M161.5,58.1L161.5,58.1l0.2-0.1c-0.9-1.2-1.1-1.1-2-2.3
			c-0.9-1.2-0.8-1.3-1.6-2.5c-0.4-0.9-0.9-1.8-1.3-2.7c-0.6-1.4-0.8-1.3-1.3-2.7c-0.5-1.4,0.7-3.5-0.7-3c-1.4,0.4,0.5,1.5,0.8,3
			c0,0,0.1-0.1,0.1-0.1c0,0-0.2,0.1-0.2,0.1c0.6,1.4,0.5,1.4,1.1,2.8c0.3,0.9,1.1,1.8,1.4,2.7l-0.3,0.1c0,0,0,0.1,0,0.1
			c0.9,1.2,1,1.2,1.9,2.4C160.3,57.1,160.5,56.9,161.5,58.1c0.5,0.9,1,1.8,1.5,2.7c0,0-0.2,0.2-0.2,0.2c0,0,0.2-0.1,0.2-0.1
			c1.2,1,1.1,1,2.2,2.1c1.1,1.1,1,3.3,2.2,2.3c1.1-1-1.2-1.2-2.1-2.4l0.3-0.3l-0.3,0.3c-1.1-1-1.1-1.1-2.1-2.2
			C162.6,59.8,162,59,161.5,58.1"/>
		<path clip-path="url(#SVGID_4_)" fill="#FFFEF2" d="M159.2,50.6c-0.4-0.7-0.2-0.8-0.6-1.5c-0.4-0.7-0.2-1.9-0.9-1.5
			c-0.7,0.4,0.4,0.8,0.8,1.5c0.4,0.7,0.5,0.6,0.9,1.3l-0.1,0c0,0,0.1-0.1,0.1,0c0.8,1.4,0.6,1.5,1.4,2.9c0.8,1.4,0.9,1.3,1.7,2.7
			c0,0,0,0,0,0s0.1-0.1,0.1-0.1c0.7,0.8,1.4,1.6,2.1,2.4c1,1.2,1,1.2,2,2.5c0,0-0.1,0.1-0.1,0.1c0,0,0.2-0.2,0.2-0.2
			c1.1,1.1,1.1,1.2,2.2,2.3c0.6,0.6,0.5,0.6,1.1,1.2c0.6,0.5,0.6,1.6,1.2,1.1c0.6-0.6-0.5-0.6-1-1.2c-0.6-0.6-0.5-0.6-1.1-1.2
			c-1.1-1.2-1.4-0.9-2.4-2.1c-1-1.2-0.9-1.4-1.8-2.6l-0.1,0.1c0,0,0,0,0,0c-0.7-0.8-1.3-1.7-2.1-2.4c-0.9-1.3-0.9-1.3-1.8-2.6
			C160.1,51.9,160.1,51.9,159.2,50.6"/>
		<path clip-path="url(#SVGID_4_)" fill="#FFFEF2" d="M161.8,48.1c1.2,1.1,1.2,1.1,2.4,2.3c1.2,1.1,1.2,1.1,2.4,2.2
			c0.7,0.8,1.5,1.6,2.2,2.5c0.7,0.8,1.4,1.5,2.2,2.3c-0.7-0.8-1.2-1.7-1.9-2.6c-0.7-0.9-1.6-1.5-2.3-2.4c0,0,0.2-0.2,0.2-0.2
			l-0.2,0.2c-2.4-2.2-2.4-2.3-4.8-4.5c-0.8-0.7-1.6-1.5-2.4-2.3c-0.8-0.7-1.6-1.3-2.4-2.1c0.8,0.7,1.5,1.5,2.3,2.2
			C160.2,46.5,161,47.3,161.8,48.1"/>
		<path clip-path="url(#SVGID_4_)" fill="#FFFEF2" d="M178.9,29.4c0,0,0,0.1,0,0.1C178.9,29.5,178.8,29.4,178.9,29.4
			c-1.2,0.1-1.2,0.2-2.3,0.3c-0.3,0-0.3-0.1-0.6-0.1c-0.1,0-0.1-0.2-0.2-0.2c0,0,0,0.3,0,0.3c0,0,0-0.2-0.1-0.2c0,0,0-0.1-0.1-0.1
			c-0.1,0-0.1,0.2-0.3,0.2c-0.6,0.1-0.6,0.2-1.1,0.3c-0.8,0.1-1.6,0.2-2.3,0.3c-1.2,0.2-1.1,0.4-2.3,0.6c0,0,0-0.1,0-0.1l-0.1-0.2
			c-1.4,0.7-1.4,0.7-2.8,1.3c-1,0.4-2,0.7-2.9,1.1l0,0.1l0,0.1c-1.4,0.7-1.4,0.8-2.7,1.5l0,0l-0.1-0.1c-1.3,0.9-3.3,0.3-2.5,1.6
			c0.8,1.4,1.2-0.7,2.6-1.4c1.4-0.7,1.3-0.8,2.8-1.5c1-0.3,1.9-0.9,2.9-1.2l0,0.1l0-0.1c1.4-0.7,1.5-0.6,2.9-1.1
			c1.1-0.4,1.1-0.3,2.3-0.5c0.8-0.2,1.5-0.3,2.3-0.4c0.6-0.1,0.6-0.1,1.2-0.2c0.1,0,0.1-0.1,0.3-0.1c0,0,0,0,0.1,0c0,0,0-0.2,0-0.2
			c0,0,0,0.1,0,0.1c0,0,0-0.2,0-0.2c0.1,0,0.1,0.2,0.2,0.2c0.3,0,0.3-0.2,0.6-0.2C177.7,29.5,177.7,29.4,178.9,29.4
			c1.6-0.1,1.6,0.1,3.1,0.1C183.6,29.5,180.4,29.5,178.9,29.4"/>
		<path clip-path="url(#SVGID_4_)" fill="#FFFEF2" d="M180.2,37.8c-0.6,0.1-0.7-0.1-1.3,0c-0.2,0-0.2-0.1-0.3-0.1c0,0,0,0.1-0.1,0.1
			v0.1c0,0,0,0.2,0,0.2c0,0,0-0.3-0.1-0.3c-0.1,0-0.1,0.1-0.1,0.1c-0.3,0-0.3,0.1-0.6,0.1c-1.3,0.1-1.3,0.1-2.5,0.2
			c-1.1,0-2.2,0.2-3.4,0.2c0,0,0-0.2,0-0.2v0c-1.7,0.1-1.7,0.5-3.4,0.5c-1.7,0-1.7-0.3-3.4-0.3c-0.8,0-0.8-0.1-1.7-0.1
			c-0.8,0-1.7-0.7-1.7,0.2c0,0.9,0.9,0,1.7,0.1c0.8,0,0.8,0.2,1.7,0.2c1.7,0.1,1.7,0,3.4,0.1c0,0,0,0,0,0l0,0.1
			c1.7-0.1,1.7-0.1,3.4-0.2c1.1,0,2.3,0.2,3.4,0.2c0,0,0-0.1,0-0.1v-0.1c1.3-0.2,1.3,0.1,2.6-0.1c0.3,0,0.3-0.1,0.6-0.2
			c0.1,0,0.1-0.2,0.1-0.3c0,0,0,0.2,0,0.2c0,0,0,0.1,0.1,0.1c0,0,0-0.2,0-0.2c0.1,0,0.2,0.2,0.3,0.1
			C179.6,38.1,179.6,37.9,180.2,37.8c0.8-0.2,1.7-0.3,2.5-0.5c1.2-0.3,2.8,0.6,2.5-0.6c-0.3-1.2-1.2,0.4-2.5,0.7
			C181.9,37.5,181.1,37.6,180.2,37.8"/>
		<path clip-path="url(#SVGID_4_)" fill="#F5CF40" d="M151.1,34.3c0.3-0.4-0.4-0.8-0.7-0.4C150.1,34.4,150.8,34.8,151.1,34.3"/>
		<path clip-path="url(#SVGID_4_)" fill="#F5CF40" d="M149.4,33.9c0.2-0.3-0.3-0.6-0.5-0.3C148.8,33.9,149.2,34.2,149.4,33.9"/>
		<path clip-path="url(#SVGID_4_)" fill="#F5CF40" d="M148.6,33c0.2-0.3-0.3-0.6-0.5-0.3C148,33,148.5,33.2,148.6,33"/>
		<path clip-path="url(#SVGID_4_)" fill="#F5CF40" d="M150.6,33c0.2-0.3-0.3-0.6-0.5-0.3C149.9,33.1,150.4,33.4,150.6,33"/>
		<path clip-path="url(#SVGID_4_)" fill="#F5CF40" d="M153.8,33.3c-0.2,0.3,0.3,0.6,0.5,0.3C154.4,33.3,154,33,153.8,33.3"/>
		<path clip-path="url(#SVGID_4_)" fill="#F5CF40" d="M154.9,31.4c-0.2,0.3,0.3,0.6,0.5,0.3C155.5,31.4,155.1,31.1,154.9,31.4"/>
		<path clip-path="url(#SVGID_4_)" fill="#F5CF40" d="M155.5,31.3c-0.2,0.3,0.3,0.6,0.5,0.3C156.1,31.3,155.7,31,155.5,31.3"/>
		<path clip-path="url(#SVGID_4_)" fill="#F5CF40" d="M148.5,39.3c-0.2,0.3,0.3,0.6,0.5,0.3C149.1,39.3,148.7,39,148.5,39.3"/>
		<path clip-path="url(#SVGID_4_)" fill="#F5CF40" d="M147.1,39.1c0.2-0.3-0.3-0.6-0.5-0.3C146.4,39.1,146.9,39.4,147.1,39.1"/>
		<path clip-path="url(#SVGID_4_)" fill="#F5CF40" d="M145.9,38.7c0.2-0.3-0.3-0.6-0.5-0.3C145.2,38.7,145.7,39,145.9,38.7"/>
		<path clip-path="url(#SVGID_4_)" fill="#F5CF40" d="M147.6,38.8c0.2-0.3-0.3-0.6-0.5-0.3C146.9,38.8,147.4,39.1,147.6,38.8"/>
		<path clip-path="url(#SVGID_4_)" fill="#F5CF40" d="M145.8,38.1c0.2-0.3-0.3-0.6-0.5-0.3C145.1,38.1,145.6,38.4,145.8,38.1"/>
		<path clip-path="url(#SVGID_4_)" fill="#F5CF40" d="M147.5,41.8c0.2-0.3-0.3-0.6-0.5-0.3C146.9,41.9,147.3,42.1,147.5,41.8"/>
		<path clip-path="url(#SVGID_4_)" fill="#F5CF40" d="M145.9,41.7c-0.2,0.3,0.3,0.6,0.5,0.3C146.5,41.6,146.1,41.4,145.9,41.7"/>
		<path clip-path="url(#SVGID_4_)" fill="#F5CF40" d="M149.5,43.4c-0.2,0.3,0.3,0.6,0.5,0.3C150.1,43.4,149.7,43.1,149.5,43.4"/>
		<path clip-path="url(#SVGID_4_)" fill="#F5CF40" d="M149.4,45.7c-0.2,0.3,0.3,0.6,0.5,0.3C150,45.7,149.6,45.5,149.4,45.7"/>
		<path clip-path="url(#SVGID_4_)" fill="#F5CF40" d="M149.5,47c-0.2,0.3,0.3,0.6,0.5,0.3C150.1,47,149.7,46.7,149.5,47"/>
		<path clip-path="url(#SVGID_4_)" fill="#F5CF40" d="M152.7,45.1c-0.2,0.3,0.3,0.6,0.5,0.3C153.4,45.1,152.9,44.8,152.7,45.1"/>
		<path clip-path="url(#SVGID_4_)" fill="#F5CF40" d="M153.4,46.3c-0.2,0.3,0.3,0.6,0.5,0.3C154,46.3,153.5,46,153.4,46.3"/>
		<path clip-path="url(#SVGID_4_)" fill="#F5CF40" d="M154.1,42.4c-0.2,0.3,0.3,0.6,0.5,0.3C154.7,42.4,154.3,42.1,154.1,42.4"/>
		<path clip-path="url(#SVGID_4_)" fill="#F5CF40" d="M154.1,41.4c-0.2,0.3,0.3,0.6,0.5,0.3C154.7,41.4,154.2,41.1,154.1,41.4"/>
		<path clip-path="url(#SVGID_4_)" fill="#F5CF40" d="M155.6,42.8c-0.2,0.3,0.3,0.6,0.5,0.3C156.2,42.7,155.7,42.5,155.6,42.8"/>
		<path clip-path="url(#SVGID_4_)" fill="#F5CF40" d="M155.4,41.3c-0.2,0.3,0.3,0.6,0.5,0.3C156.1,41.2,155.6,40.9,155.4,41.3"/>
		<path clip-path="url(#SVGID_4_)" fill="#F5CF40" d="M156.5,41.4c-0.2,0.3,0.3,0.6,0.5,0.3C157.1,41.3,156.6,41.1,156.5,41.4"/>
		<path clip-path="url(#SVGID_4_)" fill="#F5CF40" d="M157.7,41.7c-0.2,0.3,0.3,0.6,0.5,0.3C158.3,41.6,157.8,41.4,157.7,41.7"/>
		<path clip-path="url(#SVGID_4_)" fill="#F5CF40" d="M155.9,38.4c-0.2,0.3,0.3,0.6,0.5,0.3C156.6,38.4,156.1,38.1,155.9,38.4"/>
		<path clip-path="url(#SVGID_4_)" fill="#F5CF40" d="M159.3,38.4c-0.2,0.3,0.3,0.6,0.5,0.3C159.9,38.4,159.4,38.1,159.3,38.4"/>
		<path clip-path="url(#SVGID_4_)" fill="#F5CF40" d="M160.5,38.5c-0.2,0.3,0.3,0.6,0.5,0.3C161.1,38.5,160.6,38.2,160.5,38.5"/>
		<path clip-path="url(#SVGID_4_)" fill="#F5CF40" d="M157.2,38.1c-0.2,0.3,0.3,0.6,0.5,0.3C157.9,38.1,157.4,37.8,157.2,38.1"/>
		<path clip-path="url(#SVGID_4_)" fill="#F5CF40" d="M158.3,36.7c-0.2,0.3,0.3,0.6,0.5,0.3C158.9,36.7,158.4,36.4,158.3,36.7"/>
		<path clip-path="url(#SVGID_4_)" fill="#F5CF40" d="M156.9,36.7c0.2-0.4,0-0.8-0.3-1c-0.4-0.2-0.9-0.2-1.1,0.2
			c0,0.1,0,0.1-0.1,0.1c-0.1,0.1-0.1,0.3-0.1,0.4c-0.1,0-0.3,0.1-0.3,0.3c0,0,0,0.1,0,0.1c0,0,0.1,0,0,0c-0.1-0.1-0.3-0.1-0.5,0
			c0,0.1-0.1,0.2,0,0.3c0,0,0,0,0,0c-0.1-0.2-0.3-0.4-0.5-0.4c0.1-0.2,0.2-0.4,0.4-0.7c0.8-1.3,0.4-2-0.4-1.5c-0.1-0.6-1-1-1.4-0.3
			c-0.3,0.5,0,0.9,0.4,1.1c-0.4,0.2-0.8,0.1-1.1,0c0,0,0,0,0,0c0.2-0.3-0.3-0.6-0.5-0.3c0,0.1,0,0.2,0,0.2c-0.1,0-0.2,0-0.2,0.2
			c-0.2-0.1-0.4-0.1-0.5,0.1c-0.2,0.4,0.3,0.7,0.6,0.6c0.1,0.7,0.3,1.1,0.3,1.2c0-0.1-0.2-0.4-0.6-1c-1-1.6-2-1.1-1.5-0.1
			c0.5,0.9,1.6,2.2,0.7,1.4c-0.9-0.8-2.8-1.5-2.3,0.4c0.2,0.8,1,1.1,1.9,1.2c0.2,0,0.4,0.1,0.6,0.1c0,0.2,0,0.2,0.1,0.4
			c-0.9,0.4-0.7,0.8-1.3,1.5c-0.1-0.1-0.3-0.1-0.4,0c-0.1,0.1,0,0.2,0,0.3c-0.8,0.9,0.8,1.1,1.7,0.4c0.1,0.1,0.3,0.1,0.4-0.1
			c0.1-0.2,0-0.3-0.1-0.3c0,0,0.1,0,0.1-0.1c0.8-1.3,0.5,0.2-0.2,1.5c-0.3,0.5-0.2,0.7,0,0.7c0,0.3,0.3,0.5,0.5,0.2
			c0.1-0.1,0-0.3-0.1-0.4c0.3-0.2,0.7-0.6,0.9-1.1c0.1,0.1,0.2,0.2,0.4,0.2c-0.1,0.3,0.3,0.6,0.5,0.3c0-0.1,0-0.1,0-0.2c0,0,0,0,0,0
			c0,0.1,0.1,0.1,0.2,0.1c0.8,1.4,0.8,0.5,0.7-1c0-0.2,0-0.3,0-0.5c0.3,0.1,0.7-0.1,0.9-0.4c0,0,0-0.2,0-0.2c0.1,0,0.2,0.2,0.3,0.2
			c0.1,0,0.1,0,0.2,0c1.1,0.5,2.2,0.2,0.7-0.8c0,0,0-0.1,0-0.1c0-0.1-0.1-0.2-0.2-0.3c0.4,0.1,0.9,0.4,1.7,0.5
			c2.1,0.3,0.9-0.7-0.2-1c-0.8-0.2-1.2-0.5-1-1.2c0,0,0,0,0.1,0c0.1,0.2,0.3,0.3,0.4,0c0.1-0.1,0.2-0.3,0.1-0.3c0,0,0,0,0.1-0.1
			c0.1-0.1,0-0.3,0-0.5c0.1-0.1,0.3-0.1,0.4-0.3C156.9,36.8,156.9,36.8,156.9,36.7"/>
		<path clip-path="url(#SVGID_4_)" fill="#F5CF40" d="M158,36.8c0.2-0.3-0.3-0.6-0.5-0.3C157.3,36.8,157.8,37.1,158,36.8"/>
		<path clip-path="url(#SVGID_4_)" fill="#F5CF40" d="M154.7,36.6c0.2-0.3-0.3-0.5-0.5-0.3C154,36.6,154.5,36.9,154.7,36.6"/>
		<path clip-path="url(#SVGID_4_)" fill="#F5CF40" d="M155.2,35.7c0.2-0.3-0.3-0.6-0.5-0.3C154.5,35.8,155,36,155.2,35.7"/>
		<path clip-path="url(#SVGID_4_)" fill="#F5CF40" d="M155.3,34.3c-0.2,0.3,0.3,0.6,0.5,0.3C155.9,34.3,155.5,34,155.3,34.3"/>
		<path clip-path="url(#SVGID_4_)" fill="#F5CF40" d="M155.9,33.7c-0.2,0.3,0.3,0.6,0.5,0.3C156.5,33.7,156,33.4,155.9,33.7"/>
		<path clip-path="url(#SVGID_4_)" fill="#F5CF40" d="M157.6,32.2c-0.2,0.3,0.3,0.6,0.5,0.3C158.2,32.2,157.7,32,157.6,32.2"/>
		<path clip-path="url(#SVGID_4_)" fill="#F5CF40" d="M149.8,42.4c-0.2,0.3,0.3,0.6,0.5,0.3C150.4,42.3,149.9,42,149.8,42.4"/>
		<path clip-path="url(#SVGID_4_)" fill="#F5AB27" d="M150.7,38c0.1-0.3,0-0.6-0.2-0.7c-0.3-0.2-0.6-0.1-0.8,0.2
			c-0.1,0.3,0,0.6,0.2,0.7C150.2,38.3,150.5,38.2,150.7,38"/>
		<path clip-path="url(#SVGID_4_)" fill="#F5AB27" d="M152.2,36.6c-0.1,0.3-0.1,0.6,0.2,0.7c0.3,0.2,0.6,0.1,0.7-0.2
			c0.1-0.3,0.1-0.6-0.2-0.7C152.7,36.3,152.3,36.4,152.2,36.6"/>
		<path clip-path="url(#SVGID_4_)" fill="#F5AB27" d="M152,38.4c-0.3-0.2-0.7-0.1-0.9,0.2c-0.2,0.3-0.1,0.7,0.2,0.9
			c0.3,0.2,0.7,0.1,0.9-0.3C152.4,39,152.3,38.6,152,38.4"/>
		<path clip-path="url(#SVGID_4_)" fill="#F5AB27" d="M152,40.2c-0.1,0.1,0,0.4,0.1,0.4c0.2,0.1,0.4,0,0.4-0.1
			c0.1-0.1,0-0.3-0.1-0.4C152.2,40,152,40.1,152,40.2"/>
		<path clip-path="url(#SVGID_4_)" fill="#F5AB27" d="M153.7,37.9c0-0.1-0.1-0.2-0.2-0.3c-0.3-0.1-0.7-0.1-0.9,0.2
			c-0.2-0.1-0.4,0-0.5,0.2c-0.1,0.2,0,0.4,0.1,0.5c0.1,0.1,0.2,0.1,0.3,0c0,0.1,0,0.1,0.1,0.2c0,0-0.1,0.1-0.1,0.1
			c-0.1,0.3,0,0.6,0.2,0.7c0.3,0.1,0.6,0.1,0.7-0.2c0.1-0.2,0.1-0.3,0-0.5c0,0,0.1,0,0.1-0.1c0,0,0.1,0.1,0.1,0.1
			c0.3,0.2,0.6,0.1,0.8-0.2c0.2-0.3,0-0.6-0.2-0.8C154.1,37.8,153.8,37.8,153.7,37.9"/>
	</g>
</g>
<g id="_x3C_Group_x3E__4_">
	<path fill="#F1E5D8" d="M66.9,134.3c-0.4-1.2-1.6-1.8-2.8-1.4l-21.8,4.3l-2.7-21.8c0-1.2-1-2.2-2.2-2.2c-1.2,0-2.2,1-2.2,2.2
		l-2.6,22L11,133.2c-1.2-0.4-2.4,0.3-2.8,1.4c-0.4,1.2,0.3,2.4,1.4,2.8l20.1,9.3L19.1,166c-0.7,1-0.5,2.4,0.5,3.1
		c1,0.7,2.4,0.5,3.1-0.5l15.1-16.3l15,16.1c0.7,1,2.1,1.2,3.1,0.5c1-0.7,1.2-2.1,0.5-3.1l-10.8-19.4l19.9-9.3
		C66.6,136.7,67.3,135.4,66.9,134.3z"/>
	<g id="starfish_2_">
		<path fill="#1990B2" d="M65.3,134.9c-0.4-1.2-1.6-1.8-2.8-1.4l-21.8,4.3L38,115.9c0-1.2-1-2.2-2.2-2.2c-1.2,0-2.2,1-2.2,2.2
			l-2.6,22l-21.6-4.1c-1.2-0.4-2.4,0.3-2.8,1.4c-0.4,1.2,0.3,2.4,1.4,2.8l20.1,9.3l-10.6,19.3c-0.7,1-0.5,2.4,0.5,3.1
			c1,0.7,2.4,0.5,3.1-0.5l15.1-16.3l15,16.1c0.7,1,2.1,1.2,3.1,0.5c1-0.7,1.2-2.1,0.5-3.1L44,147l19.9-9.3
			C65,137.3,65.7,136,65.3,134.9z"/>
		<polygon fill="#FFFFFF" points="20.1,167.1 35.9,145.3 51.7,167 52.5,166.5 36.7,144.7 62.3,136.4 62,135.5 36.4,143.8 
			36.4,116.9 35.5,116.9 35.5,143.8 9.8,135.5 9.5,136.4 35.2,144.7 19.3,166.5 		"/>
	</g>
</g>
<g id="_x3C_Group_x3E__1_">
	<g>
		<path fill="#F1E5D8" d="M72.2,156.5c-1.6-0.3-3,0.7-3.2,2.3l-1.8,20.6c-0.2,1.6-0.3,1.6-0.4,0L66,158.8c-0.1-1.6-1.4-2.7-3-2.2
			l-19.1,4.8c-1.6,0.4-1.6,0.2-0.1-0.4l18.3-7.4c1.5-0.6,2.1-2.3,1.2-3.7l-9.6-15.6c-0.9-1.4-0.7-1.5,0.3-0.3l11.7,14.1
			c1,1.3,2.8,1.3,3.9,0.1l12.2-13.7c1.1-1.2,1.2-1.1,0.3,0.3L72,150c-0.9,1.4-0.4,3,1.2,3.5l17.5,6.5c1.5,0.6,1.5,0.8-0.1,0.4
			L72.2,156.5z"/>
	</g>
	<g>
		<path fill="#F7D06E" d="M71,156.5c-1.6-0.3-3,0.7-3.2,2.3L66,179.5c-0.1,1.6-0.3,1.6-0.4,0l-0.9-20.6c-0.1-1.6-1.4-2.7-3-2.2
			l-19.2,4.8c-1.6,0.4-1.6,0.2-0.1-0.4l18.3-7.4c1.5-0.6,2.1-2.3,1.2-3.7l-9.6-15.6c-0.9-1.4-0.7-1.5,0.3-0.3l11.7,14.1
			c1,1.3,2.8,1.3,3.9,0.1l12.2-13.7c1.1-1.2,1.2-1.1,0.3,0.3l-10,15.2c-0.9,1.4-0.4,3,1.2,3.5l17.5,6.5c1.5,0.6,1.5,0.8-0.1,0.4
			L71,156.5z"/>
	</g>
</g>
</svg>
