<?xml version="1.0" encoding="utf-8"?>
<!-- Generator: Adobe Illustrator 18.0.0, SVG Export Plug-In . SVG Version: 6.00 Build 0)  -->
<!DOCTYPE svg PUBLIC "-//W3C//DTD SVG 1.1//EN" "http://www.w3.org/Graphics/SVG/1.1/DTD/svg11.dtd">
<svg version="1.1" id="Objects" xmlns="http://www.w3.org/2000/svg" xmlns:xlink="http://www.w3.org/1999/xlink" x="0px" y="0px"
	 viewBox="0 0 162.2 272.7" enable-background="new 0 0 162.2 272.7" xml:space="preserve">
<g id="_x3C_Group_x3E__9_">
	<path fill="#FFAC3E" d="M43,232.2c0,0.2,0,0.4-0.1,0.5c-0.2,1.9-0.2,3.6-0.1,5.2c0.2,3.2,0.9,5.7,1.8,7.8c0.9,2,2.1,3.5,3.4,4.7
		c2,1.9,4.2,2.9,5.7,3.4c0.7,0.3,1.3,0.4,1.6,0.5c1.6,0.5,3,0.8,4.4,0.8c8,0,12.4-8.6,13.9-12.8c0.7-1.8,1.1-3.5,1.5-5
		c0.4-1.5,0.6-2.8,0.7-3.9c0.3-2.7,0.2-4.1,0.2-4.1l0.4-4l0.1-1.5c0.1-1.1,0.5-2.7,1.1-4.6c1.7-5.7,4.9-13.7,4.9-13.7l1.7-3.4
		l2.8-5.4l2.9-5.6c4.9-9.2-4.2-14.1-4.2-14.1c-12.9-7.4-17.4,3.2-17.4,3.2c-0.1,0.4-1.7,3.8-3.4,7.5c-0.9,1.9-1.8,3.8-2.6,5.5
		c-1.3,2.7-2.3,4.8-2.3,4.8l-6.2,11.5l-1.4,2.7c0,0,0.4-1.3,0.2-0.6c-0.1,0.3-0.8,1.3-1.7,2.7c-1.2,1.8-2.8,4.2-4.2,6.3
		c-0.2,0.2-0.3,0.5-0.5,0.7c-0.6,1-1,1.9-1.4,2.8C43.5,227.2,43.2,230,43,232.2z"/>
	<path fill="#F3E7D9" d="M72.2,184.1c1.6,0.7,3.5-0.1,4.2-1.6c0.7-1.6-0.1-3.4-1.8-4.1c-1.6-0.7-3.5,0.1-4.2,1.6
		C69.7,181.6,70.5,183.5,72.2,184.1z"/>
	<path fill="#F3E7D9" d="M62.8,206.6c1.6,0.7,3.5-0.1,4.2-1.6c0.7-1.6-0.1-3.4-1.8-4.1c-1.6-0.7-3.5,0.1-4.2,1.6
		C60.4,204.1,61.2,205.9,62.8,206.6z"/>
	<path fill="#F3E7D9" d="M55.9,223.4c-1.6-0.7-3.5,0.1-4.2,1.6c-0.7,1.6,0.1,3.4,1.8,4.1c1.6,0.7,3.5-0.1,4.2-1.6
		C58.3,225.9,57.5,224,55.9,223.4z"/>
	<path fill="#F3E7D9" d="M46.6,245.8c-0.6-0.2-1.2-0.3-1.8-0.2c0.9,2,2.1,3.5,3.4,4.7c0.1-0.1,0.2-0.2,0.2-0.4
		C49,248.3,48.2,246.5,46.6,245.8z"/>
	<path fill="#F3E7D9" d="M83.8,188.9c1.6,0.7,3.5-0.1,4.2-1.6c0.7-1.6-0.1-3.4-1.8-4.1c-1.6-0.7-3.5,0.1-4.2,1.6
		C81.4,186.4,82.2,188.3,83.8,188.9z"/>
	<path fill="#F3E7D9" d="M76.9,205.7c-1.6-0.7-3.5,0.1-4.2,1.6c-0.7,1.6,0.1,3.4,1.8,4.1c1.6,0.7,3.5-0.1,4.2-1.6
		C79.3,208.2,78.5,206.3,76.9,205.7z"/>
	<path fill="#F3E7D9" d="M67.5,228.1c-1.6-0.7-3.5,0.1-4.2,1.6c-0.7,1.6,0.1,3.4,1.8,4.1c1.6,0.7,3.5-0.1,4.2-1.6
		C70,230.7,69.2,228.8,67.5,228.1z"/>
	<path fill="#F3E7D9" d="M59.8,255.1c0.1-0.1,0.1-0.2,0.2-0.3c0.7-1.6-0.1-3.4-1.8-4.1c-1.6-0.7-3.5,0.1-4.2,1.6
		c-0.2,0.5-0.2,1-0.2,1.5c0.7,0.3,1.3,0.4,1.6,0.5C57,254.8,58.4,255.1,59.8,255.1z"/>
	<path fill="#F3E7D9" d="M65.9,191.3c0.6-1.3,0.1-2.9-1.1-3.7c-0.9,1.9-1.8,3.8-2.6,5.5C63.7,193.5,65.3,192.8,65.9,191.3z"/>
	<path fill="#F3E7D9" d="M73.3,197.8c1.6,0.7,3.5-0.1,4.2-1.6c0.7-1.6-0.1-3.4-1.8-4.1c-1.6-0.7-3.5,0.1-4.2,1.6
		C70.9,195.3,71.7,197.1,73.3,197.8z"/>
	<path fill="#F3E7D9" d="M83.2,198.5c-0.6,1.3-0.1,2.8,1.1,3.7l2.8-5.4C85.5,196.3,83.8,197,83.2,198.5z"/>
	<path fill="#F3E7D9" d="M56.5,213.8c0.7-1.6-0.1-3.4-1.8-4.1c-0.3-0.1-0.7-0.2-1-0.2l-1.4,2.7c0,0,0.4-1.3,0.2-0.6
		c-0.1,0.3-0.8,1.3-1.7,2.7c0.3,0.5,0.9,1,1.5,1.3C54,216.1,55.9,215.4,56.5,213.8z"/>
	<path fill="#F3E7D9" d="M66.4,214.5c-1.6-0.7-3.5,0.1-4.2,1.6c-0.7,1.6,0.1,3.4,1.8,4.1c1.6,0.7,3.5-0.1,4.2-1.6
		C68.8,217,68,215.2,66.4,214.5z"/>
	<path fill="#F3E7D9" d="M73.8,221c-0.7,1.6,0.1,3.4,1.8,4.1c0.3,0.1,0.5,0.2,0.8,0.2l0.1-1.5c0.1-1.1,0.5-2.7,1.1-4.6
		C76.1,218.8,74.5,219.5,73.8,221z"/>
	<path fill="#F3E7D9" d="M47.2,236.3c0.7-1.6-0.1-3.4-1.8-4.1c-0.8-0.3-1.6-0.3-2.4,0c0,0.2,0,0.4-0.1,0.5c-0.2,1.9-0.2,3.6-0.1,5.2
		c0.1,0,0.1,0.1,0.2,0.1C44.7,238.6,46.5,237.9,47.2,236.3z"/>
	<path fill="#F3E7D9" d="M57.1,237c-1.6-0.7-3.5,0.1-4.2,1.6c-0.7,1.6,0.1,3.4,1.8,4.1c1.6,0.7,3.5-0.1,4.2-1.6
		C59.5,239.5,58.7,237.7,57.1,237z"/>
	<path fill="#F3E7D9" d="M66.3,247.5c1.6,0.7,3.5-0.1,4.2-1.6c0.7-1.6-0.1-3.4-1.8-4.1c-1.6-0.7-3.5,0.1-4.2,1.6
		C63.9,245,64.7,246.9,66.3,247.5z"/>
	<path fill="#FFFFFF" d="M55.9,237.8c0,0-2.1,2-0.5,2.9c0,0,0.1,0,0.2,0.1c0.1,0.1,0.2,0.1,0.2,0.1c1.8,0.5,1.7-2.4,1.7-2.4
		c13.5-1.7,18.6-9.6,21.1-15.2c3.1-7.2,1.5-14-0.3-15.6c-2.5-2.1-5.1,0.5-4,2.8c1.4,2.8,4,5.2,1.1,11.8
		c-3.3,7.6-14.4,10.1-16.6,10.5c-1.2-1.8-7.4-11.4-4.4-19.1c2.6-6.7,6.2-6.6,9.1-7.6c2.4-0.8,2.4-4.6-0.9-4.8
		c-2.4-0.2-8.3,3.5-11.1,10.9C49.4,217.9,47.5,227.1,55.9,237.8z"/>
</g>
<g id="_x3C_Group_x3E__10_">
	<path fill="#FFAC3E" d="M108.7,259.1c-0.1,0.1-0.2,0.3-0.3,0.4c-1.2,1.5-2.4,2.7-3.5,3.8c-2.3,2.1-4.6,3.5-6.8,4.2
		c-2.1,0.8-4,1-5.7,0.9c-2.8-0.1-5-0.9-6.5-1.6c-0.7-0.3-1.2-0.6-1.5-0.7c-1.5-0.7-2.7-1.6-3.7-2.5c-5.7-5.7-2.8-14.9-0.9-18.9
		c0.8-1.8,1.7-3.3,2.4-4.6c0.8-1.3,1.5-2.4,2.2-3.3c1.6-2.2,2.8-3,2.8-3l2.6-3.1l0.9-1.1c0.7-0.8,1.5-2.3,2.5-4
		c2.8-5.3,6.1-13.2,6.1-13.2l1.1-3.6l1.8-5.8l1.9-6c3-10,12.9-7.1,12.9-7.1c14.4,3.8,10.2,14.5,10.2,14.5c-0.2,0.4-1.4,3.9-2.8,7.8
		c-0.7,1.9-1.4,4-2,5.7c-1,2.9-1.8,5.1-1.8,5.1l-3.7,12.5l-0.9,2.9c0,0,0.6-1.2,0.3-0.6c-0.1,0.3-0.4,1.5-0.7,3.1
		c-0.4,2.1-0.9,5-1.4,7.4c-0.1,0.3-0.1,0.6-0.2,0.8c-0.3,1.1-0.6,2.1-1,3C111.8,255.2,110.1,257.4,108.7,259.1z"/>
	<path fill="#F3E7D9" d="M121.7,204.4c-1.6-0.7-2.5-2.5-1.8-4.1c0.6-1.6,2.5-2.3,4.1-1.7c1.6,0.7,2.5,2.5,1.8,4.1
		C125.2,204.4,123.3,205.1,121.7,204.4z"/>
	<path fill="#F3E7D9" d="M112.6,227c-1.6-0.7-2.5-2.5-1.8-4.1c0.6-1.6,2.5-2.3,4.1-1.7c1.6,0.7,2.5,2.5,1.8,4.1
		C116.1,226.9,114.2,227.7,112.6,227z"/>
	<path fill="#F3E7D9" d="M105.8,243.8c1.6,0.7,2.5,2.5,1.8,4.1c-0.6,1.6-2.5,2.3-4.1,1.7c-1.6-0.7-2.5-2.5-1.8-4.1
		C102.3,243.9,104.1,243.1,105.8,243.8z"/>
	<path fill="#F3E7D9" d="M96.6,266.4c0.6,0.2,1.1,0.7,1.4,1.1c-2.1,0.8-4,1-5.7,0.9c0-0.1,0.1-0.3,0.1-0.4
		C93.1,266.4,95,265.7,96.6,266.4z"/>
	<path fill="#F3E7D9" d="M110,199.7c-1.6-0.7-2.5-2.5-1.8-4.1c0.6-1.6,2.5-2.3,4.1-1.7c1.6,0.7,2.5,2.5,1.8,4.1
		C113.5,199.6,111.7,200.4,110,199.7z"/>
	<path fill="#F3E7D9" d="M103.2,216.5c1.6,0.7,2.5,2.5,1.8,4.1c-0.6,1.6-2.5,2.3-4.1,1.7c-1.6-0.7-2.5-2.5-1.8-4.1
		C99.7,216.6,101.6,215.8,103.2,216.5z"/>
	<path fill="#F3E7D9" d="M94.1,239.1c1.6,0.7,2.5,2.5,1.8,4.1c-0.6,1.6-2.5,2.3-4.1,1.7c-1.6-0.7-2.5-2.5-1.8-4.1
		C90.6,239.1,92.5,238.4,94.1,239.1z"/>
	<path fill="#F3E7D9" d="M80.7,263.6c0-0.1,0.1-0.2,0.1-0.4c0.6-1.6,2.5-2.3,4.1-1.7c1.6,0.7,2.5,2.5,1.8,4.1
		c-0.2,0.5-0.5,0.9-0.9,1.2c-0.7-0.3-1.2-0.6-1.5-0.7C82.9,265.5,81.7,264.6,80.7,263.6z"/>
	<path fill="#F3E7D9" d="M121.1,214c0.5-1.3,2-2.1,3.4-1.9c-0.7,1.9-1.4,4-2,5.7C121.1,217,120.5,215.4,121.1,214z"/>
	<path fill="#F3E7D9" d="M111.3,213.3c-1.6-0.7-2.5-2.5-1.8-4.1c0.6-1.6,2.5-2.3,4.1-1.7c1.6,0.7,2.5,2.5,1.8,4.1
		C114.8,213.3,112.9,214,111.3,213.3z"/>
	<path fill="#F3E7D9" d="M103.8,206.9c-0.5,1.3-1.9,2.1-3.3,1.9l1.8-5.8C103.7,203.8,104.4,205.4,103.8,206.9z"/>
	<path fill="#F3E7D9" d="M112,236.6c0.6-1.6,2.5-2.3,4.1-1.7c0.3,0.1,0.6,0.3,0.9,0.5l-0.9,2.9c0,0,0.6-1.2,0.3-0.6
		c-0.1,0.3-0.4,1.5-0.7,3.1c-0.6,0.1-1.3,0.1-1.9-0.2C112.1,240,111.3,238.1,112,236.6z"/>
	<path fill="#F3E7D9" d="M104.5,230.1c1.6,0.7,2.5,2.5,1.8,4.1c-0.6,1.6-2.5,2.3-4.1,1.7c-1.6-0.7-2.5-2.5-1.8-4.1
		C101,230.2,102.8,229.5,104.5,230.1z"/>
	<path fill="#F3E7D9" d="M94.6,229.5c-0.6,1.6-2.5,2.3-4.1,1.7c-0.3-0.1-0.5-0.2-0.7-0.4l0.9-1.1c0.7-0.8,1.5-2.3,2.5-4
		C94.6,226.4,95.2,228,94.6,229.5z"/>
	<path fill="#F3E7D9" d="M102.8,259.1c0.6-1.6,2.5-2.3,4.1-1.7c0.8,0.3,1.4,0.9,1.7,1.6c-0.1,0.1-0.2,0.3-0.3,0.4
		c-1.2,1.5-2.4,2.7-3.5,3.8c-0.1,0-0.1,0-0.2-0.1C103,262.5,102.2,260.7,102.8,259.1z"/>
	<path fill="#F3E7D9" d="M95.3,252.7c1.6,0.7,2.5,2.5,1.8,4.1c-0.6,1.6-2.5,2.3-4.1,1.7c-1.6-0.7-2.5-2.5-1.8-4.1
		C91.8,252.8,93.7,252,95.3,252.7z"/>
	<path fill="#F3E7D9" d="M81.4,253.7c-1.6-0.7-2.5-2.5-1.8-4.1c0.6-1.6,2.5-2.3,4.1-1.7c1.6,0.7,2.5,2.5,1.8,4.1
		C84.9,253.6,83,254.4,81.4,253.7z"/>
	<path fill="#FFFFFF" d="M95.6,254.1c0,0,0,2.9-1.7,2.4c0,0-0.1,0-0.2-0.1c-0.1,0-0.2-0.1-0.2-0.1c-1.6-0.9,0.5-2.9,0.5-2.9
		c-8.5-10.7-6.6-19.9-4.4-25.6c2.8-7.4,8.7-11,11.1-10.9c3.2,0.2,3.2,4,0.9,4.8c-2.9,1-6.5,0.9-9.1,7.6c-3,7.7,3.2,17.3,4.4,19.1
		c2.1-0.4,13.3-2.9,16.6-10.5c2.9-6.6,0.2-9-1.1-11.8c-1.1-2.3,1.5-4.9,4-2.8c1.8,1.6,3.4,8.3,0.3,15.6
		C114.2,244.5,109.1,252.4,95.6,254.1z"/>
</g>
<g id="_x3C_Group_x3E__5_">
	<g>
		<g>
			<g>
				<path fill="#2DC4F9" d="M51.6,47.1c-0.4-1.3,2.5-4.3,1.5-5.1c-1.1-0.8-3.1,3-4.4,3c-1.3,0-3.4-3.8-4.4-3c0,0,0,0,0,0
					c-1,0.8,1.9,3.8,1.5,5.1c-0.4,1.3-4.6,2-4.2,3.3c0.4,1.3,4.3-0.6,5.3,0.2c1.1,0.8,0.5,5,1.8,5c1.3,0,0.7-4.2,1.8-5c0,0,0,0,0,0
					c1.1-0.8,4.9,1.1,5.3-0.2C56.3,49.1,52.1,48.3,51.6,47.1z"/>
			</g>
		</g>
	</g>
</g>
<g>
	<path fill="#FFFFFF" d="M66.3,8.1C54.9,8.5,55.5,19.3,56,20.6c1,2.7,7.7,4.7,8.3,4.9c0.5,0.2,1.9,1.6,2.2,1.6
		c0.3-0.1,1.6-1.5,2.1-1.8c0.5-0.3,7.3-2.6,8.2-5.3C77.2,18.7,77.7,7.9,66.3,8.1z"/>
	<g>
		<path fill="#F8F4F2" d="M66.3,8.6c-0.3,0-0.6,0-0.8,0c0.2,5.3,0.6,17.5,1,17.5c0.4,0,0.6-12.2,0.7-17.5
			C66.9,8.6,66.6,8.6,66.3,8.6z"/>
		<path fill="#F8F4F2" d="M68.6,8.8c-0.6,5.6-1.7,16.8-1.3,16.9c0.4,0,2.1-11,2.9-16.6C69.7,8.9,69.1,8.8,68.6,8.8z"/>
		<path fill="#F8F4F2" d="M71.6,9.7c-1.4,5.7-3.7,15-3.4,15.1c0.3,0.1,3-8.6,4.7-14.2C72.5,10.2,72.1,9.9,71.6,9.7z"/>
		<path fill="#F8F4F2" d="M64.7,24.8c0.3-0.1-2.1-9.2-3.6-14.9c-0.5,0.3-0.9,0.6-1.3,0.9C61.6,16.4,64.4,24.9,64.7,24.8z"/>
		<path fill="#F8F4F2" d="M57.6,13.5c2.6,5,5.9,11,6.2,10.8c0.3-0.1-2.8-7-5.2-12.2C58.2,12.5,57.9,13,57.6,13.5z"/>
		<path fill="#F8F4F2" d="M74.2,11.7c-2.3,5.4-5.3,12.4-5,12.5c0.3,0.1,3.4-6,5.9-11.2C74.9,12.5,74.6,12.1,74.2,11.7z"/>
		<path fill="#F8F4F2" d="M76,14.9c-2.9,4.2-5.8,8.5-5.6,8.6c0.2,0.1,3-3.4,5.9-7.1C76.3,15.9,76.1,15.4,76,14.9z"/>
		<path fill="#F8F4F2" d="M56.5,16.9c3,3.6,5.9,6.9,6.1,6.8c0.2-0.2-2.8-4.3-5.7-8.3C56.6,15.9,56.5,16.5,56.5,16.9z"/>
		<path fill="#F8F4F2" d="M56.3,19.4c2.4,2,4.4,3.6,4.5,3.4c0.1-0.1-1.9-2.2-4.5-4.8C56.3,18.6,56.3,19.1,56.3,19.4z"/>
		<path fill="#F8F4F2" d="M76.5,17.6c-2.5,2.7-4.5,4.9-4.4,5c0.1,0.1,2-1.5,4.4-3.7C76.5,18.5,76.5,18.1,76.5,17.6z"/>
		<path fill="#F8F4F2" d="M65.7,25.7c0.4-0.1-1-11.3-1.6-16.8C63.5,9,63,9.1,62.5,9.3C63.4,14.8,65.4,25.7,65.7,25.7z"/>
	</g>
</g>
<path fill="#FFFFFF" d="M40.9,69.7c0.1,0.4,0.6,1.9,2,3.3c0,0,0,0,0,0c3.4,3.4,8.9,3.3,12.4-0.2c3.5-3.5,3.6-9.1,0.2-12.4
	c-0.1-0.1-0.2-0.2-0.3-0.3c-0.1-0.1-0.2-0.2-0.3-0.3l-2.5,2.5c0,0,0,0,0,0l0,0c0,0,0,0,0,0c0.4,0.4,0.7,0.8,0.9,1.3c0,0,0,0,0,0
	c0.1,0.2,0.2,0.5,0.3,0.7c0.1,0.3,0.2,0.5,0.3,0.8c0.8,3-1.1,6.1-4.1,6.9c-2.5,0.6-5-0.9-5.6-3.3c-0.5-2,0.7-4.1,2.8-4.7
	c1.7-0.4,3.4,0.6,3.9,2.3c0.4,1.4-0.5,2.9-1.9,3.2c-0.3,0.1-0.6-0.1-0.7-0.4c-0.1-0.3,0.1-0.6,0.4-0.7c0.8-0.2,1.3-1,1.1-1.9
	c-0.3-1.1-1.4-1.7-2.5-1.5c-1.4,0.4-2.3,1.8-1.9,3.3c0.5,1.9,2.4,3,4.3,2.5c2.4-0.6,3.9-3.1,3.3-5.5c-0.1-0.2-0.1-0.4-0.2-0.6
	c0,0,0-0.1-0.1-0.1c-0.1-0.2-0.1-0.3-0.2-0.5c0,0,0-0.1-0.1-0.1c-0.1-0.2-0.2-0.3-0.3-0.5c0,0,0,0,0-0.1c-0.1-0.2-0.2-0.3-0.4-0.5
	c-1.4-1.6-3.6-2.4-5.8-1.8C42.3,62.3,40.1,64.9,40.9,69.7z"/>
</svg>
