<?xml version="1.0" encoding="utf-8"?>
<!-- Generator: Adobe Illustrator 18.0.0, SVG Export Plug-In . SVG Version: 6.00 Build 0)  -->
<!DOCTYPE svg PUBLIC "-//W3C//DTD SVG 1.1//EN" "http://www.w3.org/Graphics/SVG/1.1/DTD/svg11.dtd">
<svg version="1.1" id="Layer_1" xmlns="http://www.w3.org/2000/svg" xmlns:xlink="http://www.w3.org/1999/xlink" x="0px" y="0px"
	 viewBox="0 0 21.6 19.7" enable-background="new 0 0 21.6 19.7" xml:space="preserve">
<g>
	<defs>
		<rect id="SVGID_1_" y="0" width="21.6" height="19.7"/>
	</defs>
	<clipPath id="SVGID_2_">
		<use xlink:href="#SVGID_1_"  overflow="visible"/>
	</clipPath>
	<path clip-path="url(#SVGID_2_)" fill="#E60012" d="M14.2,13c1.2-1.3,2-3.4,1.2-5.1c0-0.3,0-0.6,0-0.9c-0.1-1.7-1.2-2.5-2.8-2.5
		c-0.9,0-1.9,0.3-2.9,0.8C9.4,5,8.8,5,8.4,5.3C7.3,6.2,6,7.5,5.6,8.9c-0.5,0.8-0.9,1.5-1.1,2.3c-0.4,1.7,0.4,3.1,2,3.8
		c0.3,0.1,0.5,0.2,0.8,0.3c0.1,0.1,0.2,0.2,0.3,0.3c1.1,1.1,2.7,0.4,3.8-0.5C12.4,14.7,13.4,14,14.2,13 M12.2,8.2
		c-0.1-0.1-0.3-0.1-0.4-0.1c0,0,0,0,0-0.1C12.3,7.5,12.3,7.7,12.2,8.2 M9.6,8.3c-0.1,0-0.1,0-0.2,0.1C9.6,8,9.8,7.7,10.1,7.5
		C9.9,7.7,9.8,8,9.6,8.3 M8.6,13.2C8.7,13.2,8.7,13.3,8.6,13.2c0.1,0.2,0.1,0.4,0.1,0.5c0,0.1,0.1,0.2,0.1,0.2c0,0,0,0-0.1,0
		C8.7,13.8,8.7,13.5,8.6,13.2 M12.1,12.9c0-0.1,0.1-0.2,0.1-0.3c0.1,0,0.2-0.1,0.3-0.1c-0.1,0.1-0.2,0.2-0.3,0.3
		C12.2,12.8,12.2,12.8,12.1,12.9"/>
	<path clip-path="url(#SVGID_2_)" fill="#E60012" d="M4.1,7.1C4.3,7.1,4.1,7,4,7C3.8,6.8,3.7,6.7,3.5,6.5C3.1,6.1,2.7,5.7,2.4,5.2
		C2,4.6,0.2,5.4,0.4,5.7c0.4,0.5,0.8,1.1,1.2,1.5C2,7.6,2.3,7.9,2.8,8c0.5,0.1,1.1-0.1,1.4-0.4C4.6,7.4,4.5,7.1,4.1,7.1"/>
	<path clip-path="url(#SVGID_2_)" fill="#E60012" d="M11.1,3.8c-0.5-1.2-1-2.3-1.4-3.5c-0.2-0.7-2.2-0.1-2,0.5
		C8.1,2,8.6,3.2,9.1,4.3C9.4,5,11.4,4.3,11.1,3.8"/>
	<path clip-path="url(#SVGID_2_)" fill="#E60012" d="M19.1,3.9c0.1,0,0.2-0.1,0.3-0.1c0,0,0.1,0,0.1,0c0.4,0,1-0.2,1.3-0.5
		c0.3-0.4-0.3-0.4-0.5-0.4c-1.3,0.1-2.8,0.7-3.8,1.6c-0.4,0.3,0.3,0.4,0.5,0.4c0.5,0,1-0.2,1.4-0.5C18.6,4.2,18.9,4,19.1,3.9"/>
	<path clip-path="url(#SVGID_2_)" fill="#E60012" d="M21,8.6c-1.1,0-2.2,0-3.2,0.5c-0.3,0.1-0.8,0.6-0.5,1c0.3,0.4,1,0.3,1.4,0.1
		c0.2-0.1,0.6-0.1,0.9-0.2c0.2,0,0.3,0,0.5,0c0.1,0,0.1,0,0.2,0h0h0c0,0,0,0,0,0c0.1,0,0,0,0,0c0.5,0,1-0.1,1.3-0.6
		C21.8,9,21.4,8.6,21,8.6"/>
	<path clip-path="url(#SVGID_2_)" fill="#E60012" d="M15.7,15.3c0-0.5-2.1-0.1-2,0.5c0,0.7,0.3,1.3,0.8,1.8c0.4,0.4,2.3-0.3,1.9-0.7
		C15.9,16.5,15.7,15.9,15.7,15.3"/>
	<path clip-path="url(#SVGID_2_)" fill="#E60012" d="M3.4,13.2c-0.5-0.2-1.1,0-1.4,0.4c-0.7,0.7-1.4,1.4-1.9,2.3
		c-0.2,0.4,0.2,0.8,0.6,0.9c0.5,0.1,1.1-0.2,1.3-0.6c0.4-0.7,1-1.3,1.6-1.9C4,13.8,3.8,13.3,3.4,13.2"/>
	<path clip-path="url(#SVGID_2_)" fill="#E60012" d="M6.3,18.3v1v0.2c0,0.3,2,0,2-0.5v-0.2v-1C8.3,17.5,6.3,17.7,6.3,18.3"/>
</g>
</svg>
